<?xml version="1.0" encoding="UTF-8"?>
<!-- Generator: visioncortex VTracer 0.6.3 -->
<svg version="1.1" xmlns="http://www.w3.org/2000/svg" width="1162" height="558">
<path d="M0 0 C1.07 -0 1.07 -0 2.16 -0.01 C5.97 -0.02 9.77 -0.03 13.57 -0.04 C16.65 -0.04 19.72 -0.06 22.79 -0.08 C43.78 -0.23 64.26 0.65 85.12 3.2 C86.16 3.33 87.2 3.46 88.27 3.59 C94.9 4.42 101.51 5.35 108.12 6.33 C109.12 6.47 110.12 6.62 111.15 6.77 C127.43 9.14 143.7 11.65 159.95 14.25 C162.32 14.63 164.69 15.01 167.05 15.38 C184.71 18.17 201.8 21.21 218 29.07 C221.59 30.38 224.32 30.51 228.12 30.2 C230.4 28.8 230.4 28.8 232.12 27.2 C232.78 27.2 233.44 27.2 234.12 27.2 C234.78 25.88 235.44 24.56 236.12 23.2 C237.77 23.2 239.42 23.2 241.12 23.2 C241.78 25.18 242.44 27.16 243.12 29.2 C244.24 28.77 245.36 28.34 246.51 27.89 C247.98 27.33 249.46 26.77 250.93 26.2 C251.67 25.92 252.41 25.63 253.17 25.34 C253.88 25.07 254.59 24.79 255.32 24.52 C255.98 24.26 256.63 24.01 257.31 23.75 C259.12 23.2 259.12 23.2 262.12 23.2 C263.07 32.38 260 41.08 254.42 48.45 C253.4 49.56 252.36 50.66 251.31 51.74 C249.45 54.02 249.26 56.34 249.12 59.2 C249.67 59.45 250.23 59.69 250.8 59.94 C253.59 61.46 255.73 63.36 258.12 65.45 C267.71 73.34 276.86 76.81 288.94 78.66 C292.12 79.2 292.12 79.2 293.12 80.2 C293.84 85.88 291.89 88.91 288.8 93.39 C288.4 94.01 288 94.62 287.58 95.26 C283.26 101.75 283.26 101.75 281.12 103.2 C278.2 103.5 278.2 103.5 274.93 103.39 C273.84 103.36 272.76 103.34 271.64 103.31 C270.39 103.26 270.39 103.26 269.12 103.2 C269.04 104.36 269.04 104.36 268.96 105.54 C268.12 108.2 268.12 108.2 265.79 109.63 C264.78 109.99 263.76 110.36 262.71 110.74 C261.57 111.16 260.43 111.57 259.26 112 C258.06 112.42 256.86 112.84 255.62 113.27 C254.48 113.69 253.34 114.11 252.16 114.54 C232.94 121.44 213.33 123.8 193.18 126.27 C189.04 126.77 184.91 127.28 180.78 127.8 C178.22 128.13 175.67 128.44 173.11 128.75 C159.1 130.3 159.1 130.3 148.12 138.2 C147.46 138.2 146.8 138.2 146.12 138.2 C146.01 138.86 145.91 139.52 145.8 140.2 C145.12 143.2 145.12 143.2 143.6 146.72 C141.68 151.79 141.68 156.59 141.74 161.95 C141.72 163.32 141.72 163.32 141.71 164.72 C141.74 172.28 143.19 177.49 145.12 185.2 C313.75 185.2 482.38 185.2 656.12 185.2 C656.12 302.02 656.12 418.84 656.12 539.2 C564.71 539.2 473.3 539.2 379.12 539.2 C379.12 533.26 379.12 527.32 379.12 521.2 C464.59 521.2 550.06 521.2 638.12 521.2 C638.12 416.59 638.12 311.98 638.12 204.2 C271.16 204.2 -95.8 204.2 -473.88 204.2 C-473.88 308.81 -473.88 413.42 -473.88 521.2 C-395.67 521.2 -317.46 521.2 -236.88 521.2 C-236.88 527.14 -236.88 533.08 -236.88 539.2 C-321.03 539.2 -405.18 539.2 -491.88 539.2 C-491.88 422.71 -491.88 306.22 -491.88 186.2 C-350.64 186.2 -209.4 186.2 -63.88 186.2 C-67.84 173 -71.8 159.8 -75.88 146.2 C-76.63 133.02 -76.63 133.02 -76.59 127.45 C-76.77 118.05 -81.08 109.63 -84.88 101.2 C-86.48 97.54 -88.05 93.87 -89.63 90.2 C-90.01 89.33 -90.4 88.45 -90.79 87.54 C-96.02 75.43 -98.92 64.31 -99.01 51.08 C-99.01 50.4 -99.02 49.71 -99.02 49.01 C-99.01 44.97 -98.64 41.17 -97.88 37.2 C-97.24 33.65 -96.92 30.72 -97.88 27.2 C-100.86 23.97 -104.22 21.6 -107.88 19.2 C-109.53 17.55 -109.13 15.66 -109.2 13.39 C-109.14 10.06 -109.06 8.51 -107.38 5.58 C-103.86 3.64 -100.74 3.19 -96.88 4.2 C-95.13 5.57 -93.77 7.06 -92.3 8.73 C-89.15 12 -85.48 12.18 -81.14 12.34 C-77.11 12.31 -73.5 11.58 -69.59 10.56 C-68.21 10.21 -66.83 9.86 -65.46 9.51 C-64.75 9.33 -64.04 9.14 -63.32 8.95 C-50.98 5.77 -38.71 2.9 -26.04 1.45 C-24.04 1.22 -22.05 0.96 -20.06 0.69 C-13.39 -0.05 -6.7 0.02 0 0 Z M-43.88 133.2 C-49.44 142.2 -49.99 151.85 -48.88 162.2 C-47.73 166.53 -46 170.27 -43.88 174.2 C-43.34 175.24 -42.81 176.28 -42.25 177.35 C-39.98 182.06 -39.98 182.06 -36.88 186.2 C-34.85 186.3 -32.8 186.32 -30.76 186.32 C-30.12 186.32 -29.47 186.33 -28.81 186.33 C-26.63 186.33 -24.45 186.32 -22.27 186.32 C-20.71 186.32 -19.15 186.32 -17.6 186.32 C-13.36 186.32 -9.12 186.31 -4.88 186.3 C-0.45 186.3 3.97 186.3 8.4 186.3 C16.79 186.29 25.17 186.29 33.56 186.28 C43.1 186.26 52.65 186.26 62.2 186.25 C81.84 186.24 101.48 186.23 121.12 186.2 C121.19 180.01 121.19 180.01 120.65 173.84 C120.54 173.09 120.44 172.33 120.33 171.56 C120.16 170.38 120.16 170.38 119.98 169.17 C119.86 168.34 119.74 167.5 119.61 166.64 C119.35 164.89 119.09 163.13 118.83 161.38 C118.43 158.71 118.06 156.05 117.69 153.38 C117.43 151.66 117.18 149.95 116.92 148.23 C116.81 147.45 116.71 146.66 116.6 145.85 C115.73 140.35 114.01 135.33 110.12 131.2 C107.15 130.29 104.57 130.39 101.49 130.64 C100.75 130.67 100 130.7 99.24 130.72 C96.09 130.86 92.97 131.11 89.84 131.46 C81.99 132.32 74.19 132.28 66.31 132.19 C63.87 132.16 61.42 132.14 58.98 132.13 C52.04 132.08 45.1 132.04 38.16 131.96 C33.89 131.91 29.63 131.88 25.36 131.86 C23.75 131.85 22.13 131.84 20.52 131.81 C8.77 131.61 8.77 131.61 -1.88 136.2 C-12.03 138.24 -19.58 134.64 -27.88 129.2 C-28.21 128.87 -28.54 128.54 -28.88 128.2 C-35.15 127.28 -39.8 128.01 -43.88 133.2 Z " fill="#A8936C" transform="translate(498.8828125,1.796875)"/>
<path d="M0 0 C63.49 0 63.49 0 74 10 C80.84 18.31 82.36 26.27 82.38 36.81 C82.4 37.75 82.42 38.68 82.45 39.64 C82.49 48.75 80.19 56.47 73.75 63.12 C72.69 64.24 72.69 64.24 71.61 65.38 C71.08 65.92 70.55 66.45 70 67 C71.13 70.4 72.01 71.02 74.75 73.19 C78.85 76.66 81.49 80.28 84 85 C84.35 85.61 84.71 86.23 85.07 86.86 C89.39 96.78 88.53 112.26 84.88 122.25 C78.9 135.36 71.23 140.99 58 147 C38.86 147 19.72 147 0 147 C0 98.49 0 49.98 0 0 Z M23 19 C22.98 24.68 22.96 30.36 22.95 36.03 C22.94 37.97 22.93 39.9 22.92 41.83 C22.91 44.61 22.91 47.38 22.9 50.15 C22.9 51.02 22.89 51.89 22.89 52.79 C22.89 54.86 22.94 56.93 23 59 C25.33 61.33 30.88 60.28 34 60.31 C34.92 60.34 35.84 60.37 36.79 60.4 C44.41 60.47 50.86 59.06 56.44 53.62 C60.2 47.3 60.8 41.24 60 34 C58.27 27.61 55.44 23.7 50 20 C46.88 18.96 44.73 18.89 41.46 18.9 C39.85 18.91 39.85 18.91 38.21 18.91 C37.09 18.92 35.97 18.93 34.81 18.94 C33.12 18.94 33.12 18.94 31.38 18.95 C28.59 18.96 25.79 18.98 23 19 Z M23 78 C23 94.83 23 111.66 23 129 C45.76 130.86 45.76 130.86 56 125 C58.1 122.89 58.1 122.89 59.44 120.5 C59.91 119.75 60.38 118.99 60.87 118.22 C64.61 110.87 64.12 100.04 62.35 92.09 C60.25 86.86 56.84 82.91 52 80 C43.42 76.79 43.42 76.79 23 78 Z " fill="#A8926D" transform="translate(127,291)"/>
<path d="M0 0 C1.15 -0.02 2.3 -0.04 3.49 -0.06 C14.95 -0.11 23.03 2.16 31.38 10.25 C39.5 19.82 41.96 29.92 41.38 42.25 C33.79 42.25 26.19 42.25 18.38 42.25 C13.38 30.62 13.38 30.62 13.38 27.25 C12.45 26.82 12.45 26.82 11.5 26.38 C9.38 25.25 9.38 25.25 7.38 23.25 C4.87 23.08 2.5 23.02 0 23.06 C-1.01 23.06 -1.01 23.06 -2.04 23.06 C-6.93 23.06 -6.93 23.06 -11.62 24.25 C-12.76 26.55 -12.76 26.55 -13.62 29.25 C-14.1 29.98 -14.57 30.71 -15.05 31.46 C-16.92 34.76 -17.8 37.9 -18.75 41.56 C-19.08 42.82 -19.42 44.07 -19.76 45.36 C-21.33 52.4 -21.79 59.22 -21.83 66.4 C-21.84 67.69 -21.84 67.69 -21.85 69 C-21.85 70.81 -21.86 72.63 -21.87 74.44 C-21.87 77.15 -21.91 79.86 -21.94 82.57 C-22.03 97.04 -21.29 111.14 -14.62 124.25 C-14.62 124.91 -14.62 125.57 -14.62 126.25 C-13.88 126.54 -13.14 126.83 -12.38 127.12 C-9.62 128.25 -9.62 128.25 -7.81 129.38 C-4.46 130.72 -1.19 130.63 2.38 130.25 C4.63 129.33 4.63 129.33 6.38 128.25 C7.37 128.25 8.36 128.25 9.38 128.25 C12.92 121.71 15.37 114.67 15.91 107.27 C16 106.11 16.08 104.94 16.17 103.74 C16.26 102.53 16.35 101.31 16.44 100.06 C16.57 98.22 16.57 98.22 16.71 96.35 C16.94 93.31 17.16 90.28 17.38 87.25 C10.45 87.25 3.51 87.25 -3.62 87.25 C-3.62 80.65 -3.62 74.05 -3.62 67.25 C11.23 67.25 26.08 67.25 41.38 67.25 C41.38 94.31 41.38 121.37 41.38 149.25 C35.11 149.25 28.84 149.25 22.38 149.25 C21.38 145.78 21.38 145.78 20.38 142.25 C19.96 142.64 19.55 143.02 19.12 143.42 C18.26 144.2 18.26 144.2 17.38 145 C16.82 145.51 16.26 146.02 15.69 146.55 C8.58 151.78 2.72 152.89 -6.06 152.75 C-7.05 152.77 -8.03 152.78 -9.05 152.8 C-19.5 152.74 -26.77 149.16 -34.27 141.95 C-38.68 136.89 -41.37 131.5 -43.62 125.25 C-43.88 124.54 -44.14 123.84 -44.4 123.11 C-49.26 108.68 -49.07 93.8 -49.06 78.75 C-49.06 77.75 -49.06 76.76 -49.06 75.73 C-49.01 53.07 -47.5 28.26 -31.5 10.44 C-22.34 1.92 -11.94 0.05 0 0 Z " fill="#A8926C" transform="translate(992.625,288.75)"/>
<path d="M0 0 C7.59 0 15.18 0 23 0 C24.76 1.76 24.17 4.24 24.21 6.62 C24.23 7.82 24.25 9.02 24.27 10.26 C24.28 11.57 24.3 12.88 24.32 14.22 C24.34 15.57 24.36 16.91 24.38 18.25 C24.43 21.8 24.48 25.34 24.53 28.88 C24.58 32.5 24.64 36.11 24.69 39.72 C24.8 46.81 24.9 53.91 25 61 C34.11 46.67 34.11 46.67 42.88 32.12 C58.87 5.13 58.87 5.13 64 0 C66 -0.09 68 -0.11 70 -0.1 C71.22 -0.09 72.43 -0.09 73.69 -0.09 C74.96 -0.08 76.24 -0.07 77.56 -0.06 C78.85 -0.06 80.13 -0.05 81.45 -0.05 C84.63 -0.04 87.82 -0.02 91 0 C90.44 3.7 89.5 6.19 87.41 9.28 C86.87 10.09 86.33 10.9 85.77 11.74 C85.18 12.6 84.59 13.47 83.99 14.36 C83.38 15.26 82.78 16.17 82.15 17.1 C80.21 19.99 78.26 22.87 76.31 25.75 C75.02 27.67 73.72 29.6 72.43 31.52 C70.04 35.09 67.64 38.65 65.24 42.2 C64.7 43 64.17 43.8 63.62 44.62 C62.51 46.24 61.39 47.86 60.26 49.47 C59.71 50.26 59.16 51.05 58.6 51.86 C58.11 52.56 57.61 53.25 57.11 53.97 C55.49 56.94 55.52 59.16 56.16 62.43 C57.84 67.59 60.18 72.44 62.57 77.3 C64.29 80.8 65.97 84.32 67.65 87.84 C68.01 88.58 68.36 89.32 68.72 90.08 C72.86 98.74 76.75 107.52 80.62 116.31 C81.62 118.56 82.61 120.8 83.6 123.04 C84.22 124.44 84.83 125.84 85.45 127.25 C87.61 132.16 89.86 137.04 92.17 141.89 C93 144 93 144 93 147 C83.76 147 74.52 147 65 147 C55.01 125.91 45.84 104.59 37 83 C34.75 82.79 34.75 82.79 32.66 84.92 C22.46 95.96 23.65 107.96 23.88 122.31 C23.88 124.71 23.87 127.11 23.87 129.51 C23.85 135.34 23.93 141.16 24 147 C16.08 147 8.16 147 0 147 C0 98.49 0 49.98 0 0 Z " fill="#A8936C" transform="translate(564,291)"/>
<path d="M0 0 C1.35 0 2.7 0.01 4.05 0.02 C5.11 0.02 5.11 0.02 6.19 0.02 C8.47 0.03 10.74 0.04 13.01 0.05 C14.55 0.06 16.09 0.06 17.62 0.06 C21.4 0.07 25.17 0.09 28.95 0.11 C33.62 17.11 37.98 34.15 42.03 51.3 C42.58 53.6 43.12 55.9 43.67 58.19 C45.08 64.14 46.49 70.1 47.9 76.05 C49.06 80.92 50.21 85.78 51.37 90.65 C52.76 96.49 54.14 102.34 55.53 108.18 C55.79 109.28 56.05 110.38 56.32 111.51 C57.06 114.63 57.8 117.75 58.54 120.87 C58.75 121.77 58.97 122.68 59.19 123.62 C59.59 125.31 59.99 127.01 60.39 128.71 C60.76 130.31 61.15 131.91 61.54 133.5 C61.73 134.27 61.91 135.03 62.1 135.82 C62.26 136.48 62.43 137.14 62.6 137.82 C63.07 140.88 62.95 144.01 62.95 147.11 C54.7 147.11 46.45 147.11 37.95 147.11 C33.54 134.37 31.4 121.37 28.95 108.11 C18.06 108.11 7.17 108.11 -4.05 108.11 C-4.38 111.08 -4.71 114.05 -5.05 117.11 C-5.55 119.6 -6.09 122.08 -6.68 124.55 C-6.91 125.53 -6.91 125.53 -7.15 126.53 C-7.63 128.58 -8.12 130.63 -8.61 132.68 C-8.95 134.08 -9.28 135.48 -9.61 136.89 C-10.42 140.3 -11.23 143.71 -12.05 147.11 C-19.97 147.11 -27.89 147.11 -36.05 147.11 C-36.05 136.99 -36.05 136.99 -35.19 133.35 C-35 132.52 -34.81 131.69 -34.62 130.83 C-34.4 129.96 -34.19 129.08 -33.97 128.18 C-33.75 127.22 -33.53 126.27 -33.3 125.29 C-32.57 122.16 -31.83 119.03 -31.08 115.9 C-30.56 113.68 -30.04 111.47 -29.53 109.25 C-28.16 103.41 -26.78 97.57 -25.39 91.73 C-24.02 85.91 -22.65 80.09 -21.29 74.28 C-19.18 65.32 -17.07 56.37 -14.96 47.43 C-13.13 39.7 -11.32 31.98 -9.52 24.25 C-8.96 21.86 -8.41 19.47 -7.85 17.08 C-7.51 15.62 -7.17 14.15 -6.83 12.68 C-6.38 10.71 -5.92 8.75 -5.46 6.78 C-5.21 5.7 -4.96 4.62 -4.7 3.51 C-3.75 0.01 -3.76 0.14 0 0 Z M11.95 23.11 C8.69 37.49 5.53 51.89 2.55 66.33 C2.23 67.85 1.92 69.37 1.6 70.89 C1.15 73.04 0.71 75.19 0.27 77.33 C0.01 78.57 -0.24 79.81 -0.5 81.08 C-1.14 84.09 -1.14 84.09 -1.05 87.11 C7.53 87.11 16.11 87.11 24.95 87.11 C24.56 73.44 21.41 60.53 18.39 47.24 C17.86 44.89 17.33 42.55 16.81 40.2 C15.53 34.5 14.25 28.81 12.95 23.11 C12.62 23.11 12.29 23.11 11.95 23.11 Z " fill="#A8936C" transform="translate(369.051025390625,290.886474609375)"/>
<path d="M0 0 C1.76 -0.03 1.76 -0.03 3.56 -0.06 C14.5 -0.05 22.48 3.07 30.56 10.44 C39.7 20.04 41.56 31.64 41.56 44.44 C33.64 44.44 25.72 44.44 17.56 44.44 C15.44 36.75 15.44 36.75 14.81 34.36 C13.23 28.98 11.17 26.63 6.56 23.44 C2.22 21.27 -3.28 22.18 -7.88 23.19 C-10.87 24.65 -11.3 25.38 -12.44 28.44 C-12.91 29.16 -13.39 29.88 -13.88 30.62 C-21.13 43.68 -20.78 60.21 -20.7 74.79 C-20.69 77 -20.7 79.21 -20.71 81.42 C-20.73 94.04 -20.56 107.14 -15.31 118.81 C-12.44 125.31 -12.44 125.31 -12.44 127.44 C-11.49 127.75 -10.54 128.06 -9.56 128.38 C-6.44 129.44 -6.44 129.44 -4.44 130.44 C-0.09 130.68 2.78 130.6 6.56 128.44 C7.55 128.44 8.54 128.44 9.56 128.44 C9.83 127.76 10.1 127.08 10.38 126.38 C11.21 124.3 12.09 122.24 13 120.19 C14.74 116.02 16.14 111.72 17.56 107.44 C25.48 107.44 33.4 107.44 41.56 107.44 C41.56 121.4 37.87 132.82 28.31 143.25 C19.53 151.53 9.94 152.65 -1.56 152.75 C-2.65 152.78 -3.74 152.81 -4.87 152.84 C-16.4 152.93 -23.94 149.76 -32.25 141.79 C-43.83 129.34 -46.92 111.83 -46.84 95.41 C-46.84 94.11 -46.84 92.81 -46.84 91.46 C-46.85 88.72 -46.84 85.98 -46.83 83.24 C-46.81 79.77 -46.82 76.3 -46.84 72.83 C-46.85 69.46 -46.84 66.09 -46.84 62.73 C-46.84 61.5 -46.85 60.28 -46.85 59.02 C-46.76 47.6 -44.97 36.47 -40.12 26.06 C-39.82 25.39 -39.51 24.72 -39.2 24.02 C-34.48 13.96 -28.13 6.68 -17.99 1.77 C-12.15 -0.3 -6.12 -0.04 0 0 Z " fill="#A7926C" transform="translate(496.4375,288.5625)"/>
<path d="M0 0 C62.59 0 62.59 0 74.69 11.62 C83.1 20.72 84.19 30.79 84.25 42.69 C84.27 43.73 84.29 44.76 84.31 45.83 C84.37 57.78 81.35 67.08 73.22 75.94 C58.92 89.51 43.63 87 24 87 C24 106.8 24 126.6 24 147 C16.08 147 8.16 147 0 147 C0 98.49 0 49.98 0 0 Z M23 19 C23 35.17 23 51.34 23 68 C38.67 68.83 38.67 68.83 52 64 C52.95 63.5 53.9 63.01 54.88 62.5 C59.83 56.68 61.79 48.15 61.46 40.59 C60.23 33.66 57.56 26.51 52 22 C42.9 17.56 42.9 17.56 23 19 Z " fill="#A7926D" transform="translate(781,291)"/>
<path d="M0 0 C7.92 0 15.84 0 24 0 C24 42.24 24 84.48 24 128 C40.83 128 57.66 128 75 128 C75 138 75 138 74 147 C49.58 147 25.16 147 0 147 C0 98.49 0 49.98 0 0 Z " fill="#AA9571" transform="translate(240,291)"/>
<path d="M0 0 C7.59 0 15.18 0 23 0 C23 48.51 23 97.02 23 147 C15.41 147 7.82 147 0 147 C0 98.49 0 49.98 0 0 Z " fill="#A8936D" transform="translate(891,291)"/>
<path d="M0 0 C3.11 1.7 5.59 3.44 8.09 5.95 C8.22 9.57 8.22 9.57 8.09 12.95 C5.41 13.7 5.41 13.7 2.09 13.95 C-0.59 12.07 -0.59 12.07 -2.91 9.95 C-6.95 8.6 -10.68 8.5 -14.91 8.95 C-17.78 10.32 -17.78 10.32 -19.91 11.95 C-20.57 11.95 -21.23 11.95 -21.91 11.95 C-23.05 15.63 -23.11 19.17 -23.16 23.01 C-23.18 24.24 -23.21 25.46 -23.23 26.73 C-23.21 29.92 -23.21 29.92 -21.39 31.75 C-20.9 32.15 -20.41 32.54 -19.91 32.95 C-19.91 33.61 -19.91 34.27 -19.91 34.95 C-16.57 36.06 -13.92 36.15 -10.41 36.2 C-8.69 36.23 -8.69 36.23 -6.94 36.27 C-3.61 35.91 -2.96 35.44 -0.91 32.95 C-0.25 32.95 0.41 32.95 1.09 32.95 C1.75 30.97 2.41 28.99 3.09 26.95 C1.49 26.96 1.49 26.96 -0.15 26.98 C-1.55 26.99 -2.95 27 -4.34 27.01 C-5.05 27.02 -5.76 27.02 -6.49 27.03 C-8.29 27.04 -10.1 27 -11.91 26.95 C-12.91 25.95 -12.91 25.95 -12.97 22.38 C-12.95 21.25 -12.93 20.11 -12.91 18.95 C-8.93 18.92 -4.95 18.9 -0.97 18.88 C0.17 18.87 1.3 18.87 2.47 18.86 C3.55 18.85 4.63 18.85 5.75 18.85 C7.25 18.84 7.25 18.84 8.78 18.83 C11.09 18.95 11.09 18.95 12.09 19.95 C12.87 26.92 12.76 32.51 8.53 38.26 C3.14 44.6 3.14 44.6 -0.91 45.95 C-19.49 47.23 -19.49 47.23 -25.36 42.51 C-26.13 41.74 -26.13 41.74 -26.91 40.95 C-27.49 40.36 -28.07 39.77 -28.67 39.16 C-34.34 32.94 -34.33 27.01 -34.18 18.91 C-33.73 12.43 -31.82 8.45 -27.03 4.13 C-18.84 -1.6 -9.69 -3.52 0 0 Z " fill="#A8936E" transform="translate(828.90625,507.0546875)"/>
<path d="M0 0 C7 0 7 0 9.01 1.19 C15.61 8.32 21.29 16.16 27 24 C27.03 23.31 27.05 22.62 27.08 21.9 C27.19 18.79 27.31 15.68 27.44 12.56 C27.48 11.47 27.52 10.39 27.56 9.26 C27.6 8.23 27.64 7.19 27.68 6.13 C27.72 5.17 27.76 4.21 27.79 3.22 C28 1 28 1 29 0 C31.64 0 34.28 0 37 0 C37 14.52 37 29.04 37 44 C30 44 30 44 27.99 42.81 C21.39 35.68 15.71 27.84 10 20 C9.97 20.69 9.95 21.38 9.92 22.1 C9.81 25.21 9.69 28.32 9.56 31.44 C9.52 32.53 9.48 33.61 9.44 34.74 C9.4 35.77 9.36 36.81 9.32 37.87 C9.26 39.31 9.26 39.31 9.21 40.78 C9 43 9 43 8 44 C5.36 44 2.72 44 0 44 C0 29.48 0 14.96 0 0 Z " fill="#A7926C" transform="translate(721,508)"/>
<path d="M0 0 C4.47 -0.12 8.93 -0.21 13.4 -0.27 C14.92 -0.3 16.43 -0.33 17.95 -0.38 C20.14 -0.44 22.32 -0.47 24.51 -0.49 C25.83 -0.51 27.14 -0.54 28.49 -0.57 C32.89 0.14 34.32 1.51 37 5 C37.56 7.9 37.81 10.05 37.75 12.94 C37.75 13.65 37.74 14.36 37.74 15.1 C37.59 18.37 37.25 20.63 35.42 23.38 C33.68 24.85 32.05 26 30 27 C30.51 27.64 31.01 28.28 31.53 28.94 C37.5 36.89 37.5 36.89 37.44 41.12 C37.29 42.07 37.15 43.02 37 44 C33.8 44.82 33.8 44.82 30 45 C27.45 42.83 27.45 42.83 25.25 39.81 C24.51 38.83 23.78 37.85 23.02 36.83 C22.35 35.9 21.69 34.96 21 34 C20.42 33.26 19.83 32.52 19.23 31.76 C18 30 18 30 18 28 C14.7 28 11.4 28 8 28 C8.01 29.14 8.02 30.29 8.04 31.46 C8.04 32.96 8.05 34.45 8.06 35.94 C8.07 36.69 8.08 37.45 8.09 38.22 C8.1 40.15 8.05 42.08 8 44 C7 45 7 45 4 45.12 C1 45 1 45 0 44 C-0.09 42.62 -0.12 41.23 -0.11 39.85 C-0.11 38.53 -0.11 38.53 -0.11 37.18 C-0.11 35.74 -0.11 35.74 -0.1 34.28 C-0.1 33.3 -0.09 32.33 -0.09 31.32 C-0.09 28.19 -0.08 25.07 -0.06 21.94 C-0.06 19.82 -0.05 17.71 -0.05 15.59 C-0.04 10.39 -0.02 5.2 0 0 Z M8 7 C8 11.29 8 15.58 8 20 C10.56 20.05 13.12 20.09 15.69 20.12 C16.41 20.14 17.13 20.16 17.87 20.18 C22.02 20.21 25.32 20.01 29 18 C30.4 15.2 30.25 13.1 30 10 C28.42 7.87 27.56 7.09 24.92 6.66 C23.74 6.68 23.74 6.68 22.55 6.71 C21.28 6.72 21.28 6.72 19.98 6.74 C19.1 6.76 18.22 6.79 17.31 6.81 C16.42 6.83 15.53 6.84 14.61 6.85 C12.4 6.89 10.2 6.94 8 7 Z " fill="#A8946F" transform="translate(597,508)"/>
<path d="M0 0 C3.1 1.71 5.59 3.44 8.09 5.95 C8.28 9.51 8.28 9.51 8.09 12.95 C7.09 13.95 7.09 13.95 4.34 14.26 C0.37 13.88 -0.99 12.56 -3.91 9.95 C-7.61 8.72 -11.06 8.5 -14.91 8.95 C-17.73 10.34 -17.73 10.34 -19.91 11.95 C-20.57 11.95 -21.23 11.95 -21.91 11.95 C-22.05 12.73 -22.2 13.52 -22.35 14.32 C-22.91 16.95 -22.91 16.95 -23.91 18.95 C-24.53 24.91 -23.78 28.44 -20.33 33.38 C-18.95 35.13 -18.95 35.13 -16.54 35.95 C-15.67 35.95 -14.8 35.95 -13.91 35.95 C-12.8 36.03 -11.68 36.11 -10.54 36.2 C-6.41 35.91 -1.97 35.01 1.09 31.95 C4.09 31.82 4.09 31.82 7.09 31.95 C8.09 32.95 8.09 32.95 8.71 35.57 C7.86 40.21 6.04 41.88 2.26 44.58 C-4.96 47.7 -14.26 47.51 -21.68 45.02 C-23.72 43.83 -25.25 42.63 -26.91 40.95 C-27.41 40.45 -27.9 39.94 -28.41 39.42 C-34.2 32.94 -34.43 27.19 -34.22 18.88 C-33.68 11.98 -31.51 8.19 -26.47 3.57 C-19.29 -2.39 -8.64 -3.12 0 0 Z " fill="#A9936F" transform="translate(339.91015625,507.05078125)"/>
<path d="M0 0 C11.22 0 22.44 0 34 0 C34 2.64 34 5.28 34 8 C25.42 8 16.84 8 8 8 C8 11.3 8 14.6 8 18 C14.27 18 20.54 18 27 18 C27 20.64 27 23.28 27 26 C20.73 26 14.46 26 8 26 C8 29.96 8 33.92 8 38 C16.58 38 25.16 38 34 38 C34 40.31 34 42.62 34 45 C22.78 45 11.56 45 0 45 C0 30.15 0 15.3 0 0 Z " fill="#A99571" transform="translate(525,507)"/>
<path d="M0 0 C7.36 2.84 11.02 15.7 14.06 22.44 C14.61 23.61 15.16 24.77 15.73 25.98 C18.85 32.89 20.64 38.45 19.75 46.06 C17.06 46.56 17.06 46.56 13.75 46.06 C10.13 42.13 8.79 38.28 7.75 33.06 C2.47 33.06 -2.81 33.06 -8.25 33.06 C-8.91 35.04 -9.57 37.02 -10.25 39.06 C-11.47 41.48 -12.85 43.74 -14.25 46.06 C-16.56 45.73 -18.87 45.4 -21.25 45.06 C-22.22 37.62 -18.79 31.88 -15.62 25.31 C-15.1 24.2 -14.58 23.08 -14.04 21.93 C-3.74 0.1 -3.74 0.1 0 0 Z M-0.25 14.06 C-2.4 17.92 -3.64 20.61 -3.25 25.06 C-0.94 25.06 1.37 25.06 3.75 25.06 C3.2 21.11 2.36 17.71 0.75 14.06 C0.42 14.06 0.09 14.06 -0.25 14.06 Z " fill="#A9946E" transform="translate(403.25,506.9375)"/>
<path d="M0 0 C11.55 0 23.1 0 35 0 C35 2.31 35 4.62 35 7 C30.71 7 26.42 7 22 7 C22 19.21 22 31.42 22 44 C19.03 44 16.06 44 13 44 C13 31.79 13 19.58 13 7 C8.71 7 4.42 7 0 7 C0 4.69 0 2.38 0 0 Z " fill="#AA9672" transform="translate(452,508)"/>
<path d="M0 0 C2.31 0 4.62 0 7 0 C7 14.85 7 29.7 7 45 C4.69 45 2.38 45 0 45 C0 30.15 0 15.3 0 0 Z " fill="#A7926D" transform="translate(673,508)"/>
<path d="M0 0 C0.48 2.7 0.43 4.38 -1.16 6.67 C-3.69 9.39 -5.11 10.88 -8.88 11.38 C-9.58 11.25 -10.28 11.13 -11 11 C-10.73 6.4 -8.74 4.28 -5.67 1.14 C-4 0 -4 0 0 0 Z " fill="#A7926D" transform="translate(398,29)"/>
</svg>
