<?xml version="1.0" encoding="UTF-8"?>
<!-- Generator: visioncortex VTracer 0.6.3 -->
<svg version="1.1" xmlns="http://www.w3.org/2000/svg" width="974" height="638">
<path d="M0 0 C0 2.31 0 4.62 0 7 C1.32 7.33 2.64 7.66 4 8 C3.78 10.36 3.78 10.36 3 13 C-2.94 17.19 -9.98 17.54 -17 17 C-17 18.98 -17 20.96 -17 23 C-16.17 22.98 -16.17 22.98 -15.32 22.97 C-12.8 22.93 -10.27 22.9 -7.75 22.88 C-6.44 22.85 -6.44 22.85 -5.11 22.82 C-4.26 22.82 -3.42 22.81 -2.55 22.8 C-1.77 22.79 -1 22.78 -0.2 22.77 C2.26 23.03 3.87 23.78 6 25 C5.25 26.95 5.25 26.95 4 29 C-4.86 32.2 -19.04 29.79 -28 28 C-28 32.29 -28 36.58 -28 41 C-26.86 41.17 -25.71 41.35 -24.53 41.53 C-16.75 43.26 -9.65 47.12 -2.5 50.56 C-0.96 51.3 0.57 52.03 2.11 52.76 C5.78 54.52 9.44 56.3 13.11 58.08 C14.76 58.88 16.42 59.68 18.08 60.47 C20.4 61.58 22.7 62.72 25 63.88 C26.73 64.74 26.73 64.74 28.5 65.62 C30.91 67 32.23 68.28 34.02 70.46 C37.57 74.72 40.2 77.59 45.73 78.84 C48.68 79.07 51.59 79.03 54.54 78.93 C55.42 78.9 56.3 78.87 57.21 78.84 C58.59 78.8 58.59 78.8 60 78.75 C61.84 78.7 63.69 78.64 65.53 78.59 C79.47 78.2 79.47 78.2 93.41 77.76 C142.93 76.17 192.44 75.45 241.98 75.32 C254.19 75.28 266.4 75.22 278.61 75.1 C287.37 75.03 296.13 74.99 304.89 74.98 C310.06 74.97 315.24 74.95 320.41 74.88 C325.21 74.82 330.01 74.81 334.81 74.83 C336.57 74.83 338.32 74.82 340.07 74.78 C353.31 74.53 353.31 74.53 357.52 78.19 C359.29 80.72 360.63 83.24 362 86 C363.99 88.25 366.17 90.21 368.44 92.19 C369.01 92.7 369.58 93.21 370.16 93.73 C371.77 95.17 373.38 96.59 375 98 C375.69 98.6 376.38 99.2 377.09 99.82 C378.31 100.88 379.53 101.94 380.75 103 C389.77 111 398.46 119.36 407 127.88 C407.69 128.56 408.39 129.25 409.1 129.96 C413.01 133.88 416.74 137.91 420.36 142.1 C422.34 144.39 424.37 146.64 426.43 148.86 C427.54 150.06 428.63 151.28 429.72 152.51 C433.52 156.71 437.44 160.15 442.02 163.5 C449.6 169.39 458.45 176.26 459.88 186.35 C460.24 191.45 460 196.52 459.76 201.63 C459.71 203.59 459.66 205.55 459.62 207.51 C459.52 211.75 459.39 215.99 459.24 220.23 C458.98 227.23 458.82 234.24 458.68 241.25 C458.38 255 458 268.73 457.61 282.47 C457.42 288.99 457.25 295.51 457.07 302.03 C456.72 314.69 456.36 327.34 456 340 C453.71 341.15 452.43 341.13 449.89 341.14 C449.02 341.14 448.15 341.15 447.26 341.15 C446.3 341.15 445.34 341.15 444.35 341.15 C442.83 341.16 442.83 341.16 441.28 341.16 C437.85 341.18 434.42 341.18 431 341.19 C428.54 341.2 426.09 341.21 423.64 341.21 C418.33 341.23 413.02 341.25 407.71 341.26 C399.94 341.28 392.17 341.3 384.4 341.33 C371.67 341.37 358.94 341.41 346.21 341.45 C345.44 341.45 344.68 341.45 343.9 341.45 C340.81 341.46 337.73 341.47 334.65 341.48 C309.45 341.55 284.25 341.63 259.04 341.71 C256.85 341.72 254.66 341.73 252.47 341.73 C217.09 341.85 181.72 342.04 146.35 342.52 C97.04 343.19 47.74 343.2 -1.57 343.19 C-5.36 343.19 -9.14 343.19 -12.93 343.19 C-86.17 343.2 -159.39 342.83 -232.61 341.86 C-241.39 341.74 -250.16 341.62 -258.93 341.51 C-259.81 341.5 -260.68 341.49 -261.58 341.48 C-312.89 340.82 -364.19 340.61 -415.5 340.39 C-419.06 340.38 -422.62 340.36 -426.19 340.34 C-454.79 340.22 -483.4 340.1 -512 340 C-513.41 337.18 -513.09 334.85 -513.06 331.7 C-513.05 330.35 -513.05 329.01 -513.04 327.66 C-513.03 326.94 -513.02 326.22 -513.02 325.48 C-512.88 308.15 -513.27 290.84 -513.79 273.52 C-513.97 267.66 -514.09 261.81 -514.19 255.95 C-514.26 252.56 -514.32 249.17 -514.39 245.77 C-514.41 244.95 -514.42 244.12 -514.44 243.27 C-514.65 233.23 -515.26 223.43 -516.61 213.48 C-518.26 199.82 -519.67 187.82 -511 176.25 C-501.89 165.2 -491.34 155.49 -480.31 146.39 C-475.15 142.11 -470.95 137.7 -466.86 132.38 C-464.15 128.92 -461.12 125.84 -458.01 122.74 C-457.06 121.79 -457.06 121.79 -456.1 120.82 C-454.78 119.5 -453.45 118.18 -452.13 116.87 C-450.13 114.88 -448.14 112.88 -446.15 110.88 C-440.05 104.77 -433.96 98.92 -427.1 93.65 C-424.04 91.24 -421.29 88.59 -418.56 85.81 C-418.06 85.32 -417.56 84.82 -417.04 84.31 C-414.84 82.1 -413.09 80.2 -411.73 77.36 C-410 75 -410 75 -407.19 74.38 C-405.46 74.38 -405.46 74.38 -403.7 74.39 C-403.06 74.38 -402.42 74.37 -401.75 74.37 C-399.59 74.36 -397.43 74.38 -395.27 74.4 C-393.72 74.4 -392.17 74.39 -390.62 74.39 C-386.38 74.38 -382.15 74.4 -377.91 74.43 C-373.4 74.45 -368.9 74.45 -364.39 74.45 C-356.75 74.45 -349.11 74.48 -341.47 74.51 C-333.78 74.55 -326.09 74.57 -318.4 74.57 C-317.47 74.57 -316.54 74.58 -315.58 74.58 C-314.65 74.58 -313.73 74.58 -312.77 74.58 C-268.82 74.6 -224.92 75.25 -180.99 76.66 C-166.42 77.12 -151.84 77.47 -137.26 77.54 C-134.64 77.55 -132.02 77.59 -129.4 77.64 C-125.4 77.72 -121.4 77.74 -117.41 77.75 C-116.24 77.78 -115.08 77.81 -113.88 77.84 C-108.05 77.9 -108.05 77.9 -102.9 75.51 C-101.1 73.7 -101.1 73.7 -99.51 71.75 C-97.3 69.19 -94.73 67.96 -91.72 66.5 C-90.55 65.93 -89.39 65.35 -88.19 64.76 C-86.96 64.17 -85.73 63.59 -84.5 63 C-83.23 62.38 -81.96 61.76 -80.7 61.14 C-73.26 57.51 -65.78 53.95 -58.25 50.53 C-55.9 49.42 -53.61 48.28 -51.31 47.07 C-44.79 43.62 -39.47 41.13 -32 41 C-32 36.71 -32 32.42 -32 28 C-39.92 28 -47.84 28 -56 28 C-56 29.32 -56 30.64 -56 32 C-60.29 32 -64.58 32 -69 32 C-69 28.04 -69 24.08 -69 20 C-63.06 19.51 -63.06 19.51 -57 19 C-56.67 20.65 -56.34 22.3 -56 24 C-53.36 24 -50.72 24 -48 24 C-48.36 22.79 -48.72 21.59 -49.09 20.34 C-49.56 18.73 -50.03 17.11 -50.5 15.5 C-50.74 14.71 -50.98 13.92 -51.22 13.1 C-52.72 7.89 -53.25 3.43 -53 -2 C-35.38 -4.89 -17.54 -2.33 0 0 Z M-43 17 C-43 19.31 -43 21.62 -43 24 C-42.01 25.22 -42.01 25.22 -40.05 25.11 C-38.8 25.11 -38.8 25.11 -37.53 25.1 C-36.18 25.09 -36.18 25.09 -34.8 25.09 C-33.38 25.08 -33.38 25.08 -31.94 25.06 C-30.99 25.06 -30.04 25.05 -29.06 25.05 C-26.71 25.04 -24.35 25.02 -22 25 C-22 22.36 -22 19.72 -22 17 C-28.93 17 -35.86 17 -43 17 Z M-42.69 61 C-43.39 61.38 -44.09 61.76 -44.81 62.16 C-46.55 63.1 -48.27 64.05 -50 65 C-47.5 69.29 -43.81 70.82 -39.44 72.75 C-38.75 73.07 -38.07 73.38 -37.36 73.71 C-33.82 75.42 -33.82 75.42 -30 76 C-29.75 69.35 -30.26 63.43 -32 57 C-36.19 57 -39.12 59.03 -42.69 61 Z M-28 58 C-28.03 60.25 -28.05 62.5 -28.06 64.75 C-28.07 66 -28.09 67.26 -28.1 68.55 C-28.02 71.29 -27.83 73.42 -27 76 C-23.67 76.37 -22.22 76.14 -19.32 74.36 C-18.45 73.64 -17.58 72.92 -16.69 72.19 C-15.36 71.13 -15.36 71.13 -14.01 70.04 C-11.65 68.12 -11.65 68.12 -12 65 C-14.29 63.83 -16.58 62.66 -18.88 61.5 C-19.53 61.17 -20.18 60.83 -20.85 60.49 C-24.25 58.63 -24.25 58.63 -28 58 Z M-63.2 70.41 C-64.18 70.9 -65.16 71.4 -66.17 71.91 C-67.7 72.7 -67.7 72.7 -69.25 73.5 C-70.8 74.29 -70.8 74.29 -72.38 75.09 C-74.92 76.39 -77.46 77.69 -80 79 C-80 79.66 -80 80.32 -80 81 C-75.86 81.03 -71.72 81.04 -67.58 81.05 C-66.18 81.06 -64.78 81.07 -63.38 81.08 C-53.53 81.14 -43.81 80.79 -34 80 C-34 79.34 -34 78.68 -34 78 C-37.24 76.32 -40.5 74.66 -43.75 73 C-44.67 72.52 -45.59 72.05 -46.54 71.55 C-47.43 71.1 -48.32 70.65 -49.23 70.19 C-50.05 69.77 -50.87 69.35 -51.71 68.92 C-56.24 67.1 -59.11 68.31 -63.2 70.41 Z M-14.88 72.88 C-15.84 73.59 -16.81 74.31 -17.8 75.05 C-18.53 75.7 -19.25 76.34 -20 77 C-20 77.66 -20 78.32 -20 79 C-9.11 79 1.78 79 13 79 C9.55 75.55 7.35 73.88 3.12 71.75 C2.12 71.23 1.11 70.71 0.07 70.17 C-6.26 67.75 -9.58 68.84 -14.88 72.88 Z M-411.72 84.69 C-413.36 87.65 -413.35 89.67 -413 93 C-410.63 95.96 -408.9 96.01 -405.12 96.5 C-400.36 96.35 -398.37 94.21 -395 91 C-394.01 90.67 -393.02 90.34 -392 90 C-394.88 95.88 -394.88 95.88 -396 97 C-399.12 97.28 -402.25 97.23 -405.38 97.25 C-406.25 97.27 -407.13 97.29 -408.03 97.31 C-408.87 97.32 -409.72 97.32 -410.59 97.33 C-411.75 97.34 -411.75 97.34 -412.93 97.36 C-415.49 96.91 -416.37 95.97 -418 94 C-422.5 96.8 -426.09 99.86 -429.75 103.69 C-434.76 108.88 -434.76 108.88 -437 110 C-436.66 112.47 -436.66 112.47 -436 115 C-433.52 116.24 -431.76 116.17 -429 116.19 C-427.67 116.21 -427.67 116.21 -426.31 116.23 C-423.8 116.23 -423.8 116.23 -422 114 C-419.88 113.38 -419.88 113.38 -418 113 C-419.53 115.47 -419.53 115.47 -422 118 C-425.53 118.56 -425.53 118.56 -429.5 118.44 C-430.81 118.42 -432.12 118.39 -433.47 118.37 C-436.71 118.03 -438.21 117.43 -441 116 C-444.72 116.26 -446.44 118.12 -448.94 120.75 C-449.64 121.48 -450.34 122.21 -451.06 122.96 C-452.02 123.97 -452.02 123.97 -453 125 C-453.8 125.78 -454.61 126.57 -455.44 127.38 C-457.63 129.62 -459.72 131.91 -461.81 134.25 C-466.16 139.11 -470.6 143.88 -475.06 148.62 C-476.05 149.68 -476.05 149.68 -477.06 150.76 C-481.62 155.6 -486.28 160.33 -491 165 C-489.68 165.66 -488.36 166.32 -487 167 C-487 167.99 -487 168.98 -487 170 C-485.1 170.08 -483.21 170.14 -481.31 170.19 C-479.73 170.24 -479.73 170.24 -478.11 170.29 C-474.62 169.96 -472.87 168.95 -470 167 C-467.69 166.31 -467.69 166.31 -466 166 C-467.18 169.37 -468.08 171.87 -471 174 C-474.14 174.4 -474.14 174.4 -477.81 174.38 C-479.62 174.39 -479.62 174.39 -481.46 174.4 C-485.33 173.96 -487.73 173.11 -491 171 C-492.38 168.81 -492.38 168.81 -493 167 C-497.09 170.49 -501.12 174.03 -505 177.75 C-505.58 178.3 -506.15 178.85 -506.75 179.42 C-508.31 181.06 -508.31 181.06 -508 184 C-487.17 184.07 -466.33 184.1 -445.5 184.12 C-444.29 184.13 -444.29 184.13 -443.05 184.13 C-378.94 184.19 -314.83 183.75 -250.72 183.13 C-244.78 183.07 -238.85 183.02 -232.92 182.96 C-220.48 182.85 -208.05 182.73 -195.61 182.6 C-191.41 182.56 -187.22 182.52 -183.03 182.48 C-178.18 182.43 -173.33 182.38 -168.49 182.33 C-166.72 182.31 -164.95 182.29 -163.18 182.27 C-160.79 182.25 -158.39 182.23 -156 182.2 C-154.95 182.19 -154.95 182.19 -153.87 182.18 C-150.65 182.4 -150.65 182.4 -148 181 C-147.91 179.29 -147.89 177.58 -147.9 175.87 C-147.91 174.32 -147.91 174.32 -147.91 172.74 C-147.92 171.65 -147.93 170.56 -147.94 169.44 C-147.94 167.8 -147.94 167.8 -147.95 166.13 C-147.96 163.42 -147.98 160.71 -148 158 C-149.42 158.28 -150.83 158.58 -152.25 158.88 C-153.04 159.04 -153.83 159.2 -154.64 159.37 C-157.02 159.92 -157.02 159.92 -159.09 161.07 C-162.35 162.66 -164.57 161.92 -168 161 C-169.17 160.03 -170.32 159.03 -171.44 158 C-175.97 154.24 -180.82 154.29 -186.45 154.23 C-190.2 154.18 -191.79 154.14 -195 152 C-198.46 152.35 -200.05 153.03 -203 155 C-209.24 155.69 -215.86 156.03 -221 152 C-221.88 149.31 -221.88 149.31 -222 147 C-220.87 147.66 -219.73 148.32 -218.56 149 C-214.16 151.2 -209.87 152.07 -205 151 C-204.52 150.5 -204.04 150.01 -203.55 149.5 C-201.41 147.43 -199.99 147.6 -197.06 147.62 C-196.21 147.62 -195.35 147.61 -194.47 147.6 C-191.54 148.07 -190.33 149.21 -188 151 C-185.56 151.68 -185.56 151.68 -183 151.88 C-182.15 151.98 -181.31 152.08 -180.44 152.18 C-177.42 151.96 -176.16 151.09 -174 149 C-174 148.34 -174 147.68 -174 147 C-173.05 147.14 -172.1 147.29 -171.12 147.44 C-165.36 147.43 -161.2 143.58 -157 140 C-155.13 138.08 -153.41 136.11 -151.71 134.04 C-149.91 131.89 -148 129.96 -146 128 C-142.74 124.78 -139.68 121.45 -136.7 117.98 C-135.61 116.71 -134.51 115.45 -133.39 114.21 C-129.06 109.37 -125.05 104.29 -121.07 99.16 C-117.93 95.12 -114.66 91.27 -111.14 87.55 C-109.7 85.92 -109.7 85.92 -110 83 C-172.1 81.28 -234.21 79.9 -296.34 79.05 C-300.04 79 -303.75 78.95 -307.46 78.89 C-322.12 78.68 -336.78 78.52 -351.44 78.43 C-356.04 78.4 -360.63 78.35 -365.22 78.28 C-370.58 78.21 -375.94 78.17 -381.3 78.16 C-383.25 78.15 -385.21 78.13 -387.17 78.09 C-400.66 77.66 -400.66 77.66 -411.72 84.69 Z M102.9 81.94 C99.67 82.02 96.43 82.11 93.2 82.19 C89.98 82.27 86.76 82.35 83.54 82.44 C82.06 82.48 80.58 82.52 79.1 82.55 C68.72 82.82 58.37 83.34 48 84 C52 90.91 57 96.26 62.71 101.77 C65.73 104.7 68.61 107.66 71.35 110.85 C75.45 115.61 79.94 119.93 84.44 124.31 C90.42 130.19 95.6 135.83 100.22 142.82 C103.37 146.68 107.57 148.85 112 151 C111.5 155.31 110.98 158.73 108 162 C101.56 162.97 98.37 161.43 93 158 C92.34 158 91.68 158 91 158 C90.17 160.91 89.87 163.49 89.87 166.51 C89.87 167.35 89.86 168.19 89.86 169.06 C89.87 170.36 89.87 170.36 89.88 171.69 C89.87 172.57 89.87 173.45 89.86 174.35 C89.87 175.61 89.87 175.61 89.87 176.89 C89.87 178.03 89.87 178.03 89.87 179.21 C89.8 181.02 89.8 181.02 91 182 C93.8 182.12 96.57 182.18 99.37 182.19 C100.26 182.2 101.15 182.21 102.06 182.21 C105.07 182.24 108.07 182.26 111.07 182.28 C113.22 182.3 115.36 182.32 117.51 182.34 C122.15 182.38 126.79 182.41 131.43 182.45 C138.8 182.5 146.18 182.56 153.55 182.62 C167.26 182.74 180.98 182.85 194.69 182.95 C213.53 183.1 232.37 183.25 251.2 183.41 C257.31 183.46 263.42 183.51 269.53 183.55 C293.15 183.73 316.76 183.97 340.38 184.66 C352.97 185.02 365.55 185.13 378.15 185.1 C380.29 185.1 382.43 185.09 384.58 185.09 C390.06 185.09 395.55 185.08 401.04 185.07 C406.7 185.06 412.36 185.05 418.02 185.05 C429.01 185.04 440.01 185.02 451 185 C450.25 179.99 448.13 177.67 444.5 174.31 C439.09 169.18 439.09 169.18 438 167 C437.01 167 436.02 167 435 167 C435 166.01 435 165.02 435 164 C433.59 162.44 433.59 162.44 431.66 160.96 C426.32 156.48 421.43 151.61 416.5 146.69 C415.6 145.8 414.7 144.92 413.78 144 C408.74 138.97 404.11 133.82 399.74 128.21 C397.56 125.44 395.27 122.9 392.81 120.38 C392.01 119.54 391.22 118.7 390.39 117.84 C388.15 115.83 388.15 115.83 385.45 115.54 C382.93 115.82 382.93 115.82 381.06 117.48 C378.29 119.52 376.41 119.37 373 119.31 C371.97 119.31 370.94 119.3 369.88 119.3 C367.03 119 365.36 118.59 363 117 C361.75 114.37 361.75 114.37 361 112 C362.31 112.64 363.63 113.29 364.94 113.94 C365.67 114.3 366.4 114.66 367.15 115.03 C369 116 369 116 370 117 C375.88 117.46 375.88 117.46 381 115 C381.54 112.55 381.54 112.55 381 110 C379.59 108.2 379.59 108.2 377.56 106.75 C373.39 103.39 369.75 99.72 366.08 95.82 C363.96 93.97 362.81 93.14 360 93 C359.38 93.8 358.76 94.61 358.12 95.44 C356.01 97.85 354.95 98.01 351.67 98.37 C342.14 98.38 342.14 98.38 338 97 C336.31 93.94 336.31 93.94 335 91 C335.47 91.36 335.95 91.72 336.43 92.09 C340.97 95.28 344.42 96.78 350.01 96.42 C352.21 96.08 352.21 96.08 354.56 94.38 C356.49 91.18 356.74 89.68 356 86 C353.4 82.33 351.8 80.37 347.33 79.46 C343.91 79.25 340.54 79.25 337.12 79.3 C335.81 79.3 334.51 79.3 333.17 79.3 C329.59 79.29 326 79.32 322.42 79.36 C318.6 79.39 314.78 79.39 310.96 79.4 C304.49 79.41 298.01 79.44 291.54 79.49 C282.66 79.56 273.77 79.59 264.89 79.61 C210.89 79.75 156.89 80.47 102.9 81.94 Z M-72.15 82.99 C-74.39 83.01 -76.63 83.02 -78.88 83.04 C-79.84 83.02 -80.8 83 -81.79 82.98 C-85.66 83.05 -88.04 83.2 -91.08 85.72 C-92.87 87.74 -94.45 89.79 -96 92 C-96.92 93.16 -97.84 94.31 -98.77 95.46 C-99.64 96.57 -100.51 97.69 -101.38 98.81 C-105.57 104.22 -109.88 109.49 -114.32 114.7 C-115.96 116.95 -116.43 118.34 -117 121 C-101.96 121.11 -87 121.1 -72 120 C-72 120.99 -72 121.98 -72 123 C-72.89 122.99 -72.89 122.99 -73.81 122.98 C-80.04 122.94 -86.27 122.95 -92.5 122.99 C-94.82 123 -97.14 122.99 -99.46 122.97 C-102.81 122.94 -106.15 122.97 -109.5 123 C-111.05 122.97 -111.05 122.97 -112.62 122.94 C-118.29 123.05 -121.37 123.73 -125.47 127.79 C-126.67 129.17 -127.85 130.57 -129 132 C-130.14 133.22 -130.14 133.22 -131.31 134.46 C-131.87 135.09 -132.43 135.72 -133 136.38 C-133.58 137.02 -134.15 137.67 -134.75 138.34 C-136.2 139.92 -136.2 139.92 -136 142 C-131.05 142 -126.1 142 -121 142 C-121 142.99 -121 143.98 -121 145 C-122.54 144.97 -122.54 144.97 -124.11 144.93 C-125.47 144.91 -126.83 144.89 -128.19 144.88 C-128.86 144.86 -129.53 144.84 -130.23 144.82 C-135.64 144.77 -139.2 145.45 -143.31 149 C-145.75 153.33 -145.28 157.16 -145 162 C-131.45 162.08 -117.92 161.84 -104.38 161.5 C-102.39 161.45 -100.4 161.4 -98.41 161.36 C-93.6 161.24 -88.8 161.12 -84 161 C-84 161.99 -84 162.98 -84 164 C-85.09 163.99 -86.17 163.99 -87.29 163.98 C-91.42 163.97 -95.55 163.95 -99.67 163.95 C-101.44 163.94 -103.21 163.93 -104.98 163.92 C-114.35 163.88 -123.68 163.94 -133.04 164.44 C-133.78 164.48 -134.53 164.52 -135.3 164.56 C-138.7 164.76 -141.68 165.17 -145 166 C-145 177.88 -145 189.76 -145 202 C-141.97 202.02 -138.94 202.04 -135.81 202.06 C-134.87 202.07 -133.92 202.08 -132.94 202.09 C-128.83 202.1 -125.01 202.05 -121 201 C-121 202.32 -121 203.64 -121 205 C-128.92 205 -136.84 205 -145 205 C-145 217.87 -145 230.74 -145 244 C-119.65 244.88 -94.36 245.12 -69 245 C-69 245.99 -69 246.98 -69 248 C-69.95 247.97 -70.9 247.94 -71.89 247.91 C-96.27 247.14 -120.6 246.91 -145 247 C-145 260.2 -145 273.4 -145 287 C-132.17 287.03 -132.17 287.03 -119.34 287.05 C-114.11 287.05 -108.88 287.06 -103.64 287.08 C-99.42 287.09 -95.2 287.09 -90.98 287.09 C-89.37 287.1 -87.76 287.1 -86.15 287.11 C-83.9 287.11 -81.64 287.11 -79.38 287.11 C-77.46 287.12 -77.46 287.12 -75.49 287.12 C-72.23 287.01 -69.2 286.62 -66 286 C-65.94 282.92 -65.91 279.83 -65.88 276.75 C-65.85 275.44 -65.85 275.44 -65.82 274.11 C-65.82 273.26 -65.81 272.42 -65.8 271.55 C-65.79 270.77 -65.78 270 -65.77 269.2 C-66.03 266.74 -66.78 265.13 -68 263 C-68.99 263 -69.98 263 -71 263 C-71 264.32 -71 265.64 -71 267 C-93.11 267 -115.22 267 -138 267 C-137.5 266.01 -137.5 266.01 -137 265 C-109.77 264.5 -109.77 264.5 -82 264 C-82 260.04 -82 256.08 -82 252 C-67.3 252.11 -52.6 252.22 -37.9 252.34 C-31.08 252.39 -24.25 252.45 -17.43 252.5 C-10.85 252.54 -4.27 252.6 2.31 252.65 C4.83 252.67 7.35 252.69 9.86 252.71 C13.37 252.73 16.89 252.76 20.4 252.79 C21.45 252.8 22.5 252.81 23.58 252.81 C24.53 252.82 25.49 252.83 26.47 252.84 C27.72 252.85 27.72 252.85 28.99 252.86 C31 253 31 253 33 254 C33.41 256.29 33.41 256.29 33.62 259.06 C33.74 260.44 33.74 260.44 33.85 261.85 C33.9 262.56 33.95 263.27 34 264 C36.25 264.03 38.5 264.05 40.75 264.06 C42.63 264.08 42.63 264.08 44.55 264.1 C47.29 264.02 49.42 263.83 52 263 C52 264.32 52 265.64 52 267 C41.44 267 30.88 267 20 267 C18.52 281.38 18.52 281.38 22 286 C42.16 288.94 66.33 285.58 86 285 C86 251.34 86 217.68 86 183 C78.1 183 70.75 183.02 63 184 C63 183.01 63 182.02 63 181 C64.34 181.02 64.34 181.02 65.71 181.04 C66.92 181.04 68.13 181.05 69.38 181.06 C70.56 181.07 71.74 181.09 72.96 181.1 C77.67 181.06 82.33 180.53 87 180 C87.03 176.52 87.05 173.04 87.06 169.56 C87.07 168.57 87.08 167.58 87.09 166.55 C87.09 165.61 87.09 164.66 87.1 163.69 C87.1 162.82 87.11 161.94 87.11 161.04 C87.23 159.01 87.23 159.01 86 158 C66.15 157.1 45.68 158.29 26 161 C26 160.01 26 159.02 26 158 C27.1 158.01 27.1 158.01 28.22 158.02 C35.33 158.06 42.36 157.83 49.45 157.34 C50.48 157.28 51.51 157.21 52.56 157.14 C55.79 156.93 59.02 156.72 62.25 156.5 C64.46 156.36 66.67 156.21 68.88 156.07 C74.25 155.72 79.63 155.36 85 155 C84.28 149.56 82.12 146.62 78.2 142.87 C71.35 138.86 63.12 140.1 55.44 140.44 C53.65 140.48 51.86 140.52 50.07 140.56 C45.71 140.66 41.36 140.81 37 141 C37 140.01 37 139.02 37 138 C47.89 138 58.78 138 70 138 C67.45 130.35 63.55 125.52 57 121 C52.5 120.12 48.51 120.29 44 121 C44 120.01 44 119.02 44 118 C46.97 118 49.94 118 53 118 C50.75 113.3 47.93 109.42 44.5 105.5 C43.75 104.62 42.99 103.75 42.22 102.84 C38.58 100.76 37.63 100.9 33.6 101.36 C27.14 102.01 20.74 102.25 14.25 102.39 C12.44 102.43 12.44 102.43 10.58 102.48 C7.3 102.56 4.02 102.63 0.74 102.71 C-2.7 102.79 -6.14 102.87 -9.59 102.95 C-16.09 103.11 -22.59 103.26 -29.09 103.41 C-36.5 103.58 -43.91 103.75 -51.32 103.93 C-66.55 104.29 -81.77 104.65 -97 105 C-96 103 -96 103 -93 102 C-90 101.78 -87.02 101.62 -84.02 101.5 C-83.03 101.46 -82.05 101.42 -81.03 101.38 C-61.95 100.64 -42.85 100.35 -23.76 99.94 C-18.01 99.81 -12.25 99.69 -6.5 99.56 C-3.85 99.5 -1.21 99.45 1.44 99.39 C12.31 99.16 23.15 98.67 34 98 C31.72 91.93 29.34 86.92 24 83 C17.87 81.17 11.16 81.81 4.85 81.99 C2.95 82 1.04 82.02 -0.86 82.02 C-5.87 82.06 -10.88 82.15 -15.89 82.26 C-20.89 82.35 -25.9 82.38 -30.91 82.42 C-39.45 82.5 -47.98 82.65 -56.52 82.85 C-61.73 82.97 -66.93 83.01 -72.15 82.99 Z M-396.92 185.87 C-403.1 185.93 -409.27 185.98 -415.45 186.04 C-428.44 186.15 -441.44 186.27 -454.43 186.4 C-458.82 186.44 -463.21 186.48 -467.6 186.52 C-472.69 186.57 -477.78 186.62 -482.88 186.67 C-484.73 186.69 -486.59 186.71 -488.44 186.73 C-490.97 186.75 -493.49 186.77 -496.01 186.8 C-496.74 186.81 -497.47 186.81 -498.22 186.82 C-502.24 186.87 -506.05 187.23 -510 188 C-510.13 205.61 -509.83 223.17 -509.2 240.77 C-508.96 247.58 -508.73 254.4 -508.51 261.21 C-508.49 261.91 -508.46 262.6 -508.44 263.31 C-507.86 281.21 -507.58 299.12 -507.34 317.02 C-507.33 318.15 -507.31 319.28 -507.29 320.44 C-507.26 322.53 -507.24 324.63 -507.21 326.73 C-507.19 328.11 -507.19 328.11 -507.17 329.52 C-507.16 330.72 -507.16 330.72 -507.14 331.94 C-507.07 334.2 -507.07 334.2 -506 337 C-388.19 337 -270.38 337 -149 337 C-149 286.84 -149 236.68 -149 185 C-195.87 184.88 -195.87 184.88 -242.73 184.87 C-243.55 184.87 -244.38 184.87 -245.22 184.87 C-295.79 184.94 -346.36 185.4 -396.92 185.87 Z M90 186 C90 235.83 90 285.66 90 337 C208.8 337 327.6 337 450 337 C450.85 330.26 450.85 330.26 451.17 323.58 C451.19 322.58 451.2 321.58 451.21 320.55 C451.23 318.95 451.23 318.95 451.25 317.32 C451.28 314.95 451.31 312.58 451.34 310.21 C451.37 308.34 451.37 308.34 451.39 306.44 C451.7 281.77 452.35 257.13 453.34 232.47 C453.92 217.64 454.11 202.84 454 188 C440.32 186.91 426.66 186.79 412.94 186.7 C410.44 186.68 407.94 186.66 405.43 186.64 C399.36 186.6 393.28 186.55 387.21 186.51 C380.05 186.46 372.89 186.41 365.73 186.35 C352.86 186.25 339.98 186.16 327.11 186.07 C314.82 185.98 302.52 185.89 290.23 185.8 C207.64 185.15 207.64 185.15 125.04 184.88 C122.49 184.88 119.94 184.88 117.39 184.87 C113.54 184.86 109.69 184.86 105.84 184.87 C103.83 184.87 101.82 184.87 99.8 184.86 C98.06 184.87 98.06 184.87 96.28 184.87 C95.27 184.87 94.27 184.87 93.23 184.87 C91.03 184.75 91.03 184.75 90 186 Z M-57 264 C-56.51 271.14 -54.82 277 -52.19 283.62 C-51.84 284.53 -51.5 285.43 -51.15 286.36 C-49.14 291.53 -46.89 296.27 -44 301 C-43.01 301 -42.02 301 -41 301 C-39.14 296.23 -37.29 291.47 -35.45 286.69 C-34.82 285.07 -34.19 283.45 -33.55 281.83 C-32.64 279.5 -31.74 277.16 -30.84 274.83 C-30.56 274.11 -30.28 273.38 -29.98 272.64 C-28.66 269.17 -28 266.77 -28 263 C-37.74 262.88 -47.29 263.16 -57 264 Z M-17 263 C-17 268.46 -16.22 269.82 -13.44 274.31 C-8.87 281.9 -5.39 289.83 -2 298 C-1.01 298 -0.02 298 1 298 C1.33 297.19 1.66 296.39 1.99 295.55 C3.21 292.56 4.43 289.57 5.64 286.57 C6.17 285.28 6.7 283.98 7.22 282.69 C7.98 280.82 8.74 278.96 9.5 277.1 C9.95 275.98 10.41 274.86 10.88 273.71 C11.54 272.12 12.23 270.54 13 269 C13 267.02 13 265.04 13 263 C3.1 263 -6.8 263 -17 263 Z M-63 264 C-63.15 277.47 -62.91 290.91 -62.56 304.38 C-62.54 305.18 -62.52 305.99 -62.5 306.82 C-62.25 317.24 -61.79 327.61 -61 338 C-59.68 338 -58.36 338 -57 338 C-55.11 333.91 -53.27 329.8 -51.44 325.69 C-50.64 323.97 -50.64 323.97 -49.82 322.21 C-46.11 313.76 -44.89 307.52 -47.76 298.65 C-48.65 296.37 -49.64 294.16 -50.69 291.94 C-54.77 282.81 -57.99 273.53 -61 264 C-61.66 264 -62.32 264 -63 264 Z M-22 265 C-24.82 289.88 -22.18 315.25 -19 340 C-17.35 340 -15.7 340 -14 340 C-12.73 336.69 -11.46 333.38 -10.19 330.06 C-9.65 328.67 -9.65 328.67 -9.11 327.26 C-8.06 324.51 -7.03 321.75 -6 319 C-5.69 318.23 -5.39 317.45 -5.07 316.65 C-2.53 309.88 -1.57 303.84 -4.15 296.92 C-5.73 293.53 -7.42 290.23 -9.19 286.94 C-9.77 285.82 -10.34 284.7 -10.94 283.54 C-14.18 277.3 -17.54 271.13 -21 265 C-21.33 265 -21.66 265 -22 265 Z M16 269 C12.08 277.08 8.39 285.22 5.06 293.56 C4.76 294.31 4.45 295.06 4.13 295.83 C3.71 296.91 3.71 296.91 3.29 298 C3.04 298.63 2.79 299.26 2.53 299.9 C1.23 305.02 1.93 308.62 4.48 313.15 C5.01 314.09 5.53 315.04 6.07 316.01 C6.62 316.97 7.18 317.94 7.75 318.94 C8.29 319.9 8.83 320.86 9.38 321.86 C10.91 324.58 12.45 327.29 14 330 C14.42 330.74 14.85 331.49 15.28 332.25 C16.19 333.83 17.09 335.42 18 337 C18.33 337 18.66 337 19 337 C19.14 321.51 18.74 306.1 18 290.62 C17.9 288.51 17.81 286.39 17.71 284.28 C17.48 279.18 17.24 274.09 17 269 C16.67 269 16.34 269 16 269 Z M-27 272 C-29.01 276.58 -31 281.17 -32.98 285.77 C-33.66 287.33 -34.34 288.89 -35.02 290.45 C-36 292.69 -36.97 294.94 -37.94 297.2 C-38.24 297.89 -38.55 298.58 -38.87 299.29 C-41.17 304.72 -41.79 308.48 -40.02 314.13 C-39.57 315.21 -39.13 316.3 -38.66 317.42 C-38.18 318.61 -37.69 319.8 -37.19 321.03 C-36.93 321.64 -36.67 322.25 -36.41 322.88 C-35.62 324.75 -34.85 326.64 -34.09 328.52 C-31.79 334.73 -31.79 334.73 -28 340 C-25.42 340.17 -25.42 340.17 -23 340 C-22.67 326.4 -23.52 312.94 -24.49 299.38 C-25.14 290.26 -25.59 281.13 -26 272 C-26.33 272 -26.66 272 -27 272 Z M21 288 C21 293.61 21 299.22 21 305 C30.79 305.04 40.56 304.94 50.35 304.63 C52.43 304.56 54.51 304.5 56.6 304.44 C66.08 304.16 75.53 303.65 85 303 C85 304.32 85 305.64 85 307 C84.23 306.99 83.46 306.99 82.66 306.98 C62.42 306.87 42.23 307.25 22 308 C22 312.62 22 317.24 22 322 C41.8 322 61.6 322 82 322 C82 322.99 82 323.98 82 325 C62.53 325 43.06 325 23 325 C23 329.62 23 334.24 23 339 C30.67 339.02 38.34 339.04 46 339.05 C48.61 339.06 51.22 339.07 53.82 339.08 C57.58 339.09 61.33 339.09 65.09 339.1 C66.25 339.1 67.4 339.11 68.59 339.11 C70.25 339.11 70.25 339.11 71.93 339.11 C72.89 339.12 73.84 339.12 74.83 339.12 C78.9 338.97 82.95 338.45 87 338 C87 321.5 87 305 87 288 C65.22 288 43.44 288 21 288 Z M-100.15 289.37 C-103.23 289.44 -106.31 289.5 -109.39 289.56 C-111.41 289.6 -113.43 289.64 -115.45 289.68 C-116.34 289.7 -117.24 289.72 -118.15 289.73 C-127.13 289.93 -136.02 290.5 -145 291 C-145 306.18 -145 321.36 -145 337 C-139.24 337.85 -139.24 337.85 -133.53 338.21 C-132.73 338.23 -131.92 338.25 -131.09 338.27 C-130.23 338.28 -129.37 338.3 -128.49 338.32 C-127.58 338.34 -126.67 338.36 -125.73 338.38 C-122.78 338.45 -119.83 338.5 -116.88 338.56 C-115.87 338.58 -114.87 338.6 -113.84 338.63 C-97.23 338.98 -80.62 339.14 -64 339 C-64 336.03 -64 333.06 -64 330 C-76.21 330 -88.42 330 -101 330 C-101 329.01 -101 328.02 -101 327 C-100.16 327.01 -99.32 327.01 -98.45 327.02 C-95.3 327.03 -92.15 327.05 -88.99 327.05 C-87.64 327.06 -86.28 327.07 -84.92 327.08 C-82.95 327.09 -80.99 327.09 -79.03 327.1 C-77.26 327.11 -77.26 327.11 -75.46 327.11 C-71.39 327.04 -71.39 327.04 -65 326 C-65 320.06 -65 314.12 -65 308 C-90.02 307.89 -114.99 308.03 -140 309 C-140 307.68 -140 306.36 -140 305 C-139.38 305 -138.77 305 -138.14 305.01 C-131.61 305.03 -125.09 305.04 -118.56 305.05 C-116.14 305.06 -113.72 305.07 -111.3 305.08 C-95.84 305.13 -80.44 304.87 -65 304 C-64.99 302.94 -64.98 301.87 -64.97 300.78 C-64.95 298.24 -64.93 295.7 -64.9 293.16 C-64.63 290.14 -64.63 290.14 -66 289 C-77.32 288.45 -88.82 289.13 -100.15 289.37 Z M0 312 C-1.11 314.67 -2.21 317.33 -3.31 320 C-3.62 320.74 -3.93 321.49 -4.25 322.25 C-8.27 330.88 -8.27 330.88 -10 340 C-2.08 340 5.84 340 14 340 C14 335.36 13.93 334.25 11.88 330.5 C11.44 329.67 11 328.85 10.54 328 C10.08 327.16 9.61 326.31 9.12 325.44 C8.21 323.75 7.3 322.06 6.38 320.37 C5.77 319.26 5.77 319.26 5.15 318.12 C4.05 316.1 3.02 314.06 2 312 C1.34 312 0.68 312 0 312 Z M-44 314 C-45.84 317.79 -47.67 321.58 -49.5 325.38 C-50.02 326.46 -50.55 327.54 -51.09 328.65 C-51.59 329.68 -52.08 330.71 -52.59 331.77 C-53.05 332.73 -53.52 333.68 -53.99 334.66 C-55.13 336.88 -55.13 336.88 -55 339 C-47.97 339.85 -41.08 340.12 -34 340 C-33.44 333.51 -35.36 328.93 -38 323.06 C-38.38 322.19 -38.76 321.31 -39.16 320.41 C-40.09 318.27 -41.04 316.13 -42 314 C-42.66 314 -43.32 314 -44 314 Z " fill="#AB9771" transform="translate(515,3)"/>
<path d="M0 0 C7.92 0 15.84 0 24 0 C27.38 10.12 27.38 10.12 28.35 15.07 C28.57 16.17 28.79 17.27 29.02 18.41 C29.35 20.14 29.35 20.14 29.7 21.91 C29.94 23.12 30.18 24.33 30.43 25.57 C31.19 29.4 31.94 33.23 32.69 37.06 C33.2 39.67 33.72 42.28 34.24 44.89 C35.5 51.26 36.75 57.63 38 64 C40.01 57.45 41.38 50.8 42.79 44.1 C43.32 41.58 43.86 39.05 44.39 36.53 C45.23 32.56 46.07 28.59 46.91 24.62 C47.72 20.78 48.53 16.94 49.35 13.1 C49.72 11.3 49.72 11.3 50.11 9.47 C50.34 8.37 50.58 7.27 50.82 6.14 C51.02 5.17 51.23 4.2 51.44 3.2 C52 1 52 1 53 0 C54.77 -0.1 56.54 -0.13 58.31 -0.13 C59.39 -0.13 60.46 -0.14 61.57 -0.14 C62.7 -0.13 63.83 -0.13 65 -0.12 C66.13 -0.13 67.26 -0.13 68.43 -0.14 C69.5 -0.14 70.58 -0.13 71.69 -0.13 C72.68 -0.13 73.68 -0.13 74.7 -0.13 C77 0 77 0 78 1 C78.1 4.17 78.13 7.31 78.11 10.48 C78.11 11.47 78.11 12.47 78.11 13.49 C78.11 16.8 78.11 20.1 78.1 23.41 C78.1 25.7 78.09 27.98 78.09 30.27 C78.09 36.29 78.08 42.32 78.07 48.35 C78.06 54.5 78.05 60.64 78.05 66.79 C78.04 78.86 78.02 90.93 78 103 C72.39 103 66.78 103 61 103 C60.67 80.56 60.34 58.12 60 35 C55.76 56.26 55.76 56.26 51.53 77.51 C51 80.17 50.47 82.83 49.94 85.49 C49.74 86.53 49.74 86.53 49.53 87.58 C49.12 89.62 48.71 91.66 48.31 93.69 C48.08 94.84 47.85 95.99 47.61 97.17 C47 100 47 100 46 103 C40.39 103 34.78 103 29 103 C25.23 88.96 22.72 74.82 20.25 60.5 C18.85 52.42 17.45 44.33 16 36 C15.67 58.11 15.34 80.22 15 103 C10.05 103 5.1 103 0 103 C0 69.01 0 35.02 0 0 Z " fill="#A8946D" transform="translate(525,444)"/>
<path d="M0 0 C44.8 0 44.8 0 53.01 6.99 C58.94 12.99 59.39 19.39 59.5 27.5 C59.42 36.09 58.38 42.69 52.25 49.06 C51.51 49.7 50.76 50.34 50 51 C50.49 51.77 50.99 52.54 51.5 53.34 C52.14 54.34 52.78 55.34 53.44 56.38 C54.08 57.37 54.71 58.37 55.37 59.4 C58.22 63.95 58.13 67.46 58.1 72.73 C58.1 73.59 58.09 74.45 58.09 75.34 C58.09 78.1 58.08 80.86 58.06 83.62 C58.06 85.49 58.05 87.36 58.05 89.23 C58.04 93.82 58.02 98.41 58 103 C52.72 103 47.44 103 42 103 C40.42 98.26 39.74 95.77 39.66 91.04 C39.63 89.93 39.6 88.82 39.57 87.67 C39.54 86.52 39.52 85.37 39.5 84.19 C39.35 76.51 38.96 69.45 37 62 C30.5 60.38 23.69 60.42 17 60 C17 74.19 17 88.38 17 103 C11.39 103 5.78 103 0 103 C0 69.01 0 35.02 0 0 Z M17 14 C15.6 16.81 15.87 19.15 15.87 22.29 C15.87 23.54 15.86 24.79 15.86 26.08 C15.87 27.39 15.87 28.71 15.88 30.06 C15.87 31.38 15.87 32.7 15.86 34.06 C15.86 35.31 15.87 36.56 15.87 37.85 C15.87 39 15.87 40.16 15.87 41.35 C15.7 43.92 15.7 43.92 17 45 C19.58 45.18 22.11 45.28 24.69 45.31 C25.75 45.36 25.75 45.36 26.83 45.4 C32.01 45.46 34.95 44.48 39 41 C43.45 35.42 42.72 28.79 42 22 C40.87 18.76 39.23 16.88 36.41 14.87 C32.72 13.54 29.13 13.79 25.25 13.88 C24.06 13.89 24.06 13.89 22.85 13.9 C20.9 13.93 18.95 13.96 17 14 Z " fill="#A7936D" transform="translate(442,444)"/>
<path d="M0 0 C5.28 0 10.56 0 16 0 C16 33.99 16 67.98 16 103 C10.72 103 5.44 103 0 103 C0 87.49 0 71.98 0 56 C-8.91 56 -17.82 56 -27 56 C-27 71.51 -27 87.02 -27 103 C-32.61 103 -38.22 103 -44 103 C-44 69.34 -44 35.68 -44 1 C-38.39 1 -32.78 1 -27 1 C-27 14.53 -27 28.06 -27 42 C-18.09 42 -9.18 42 0 42 C0 28.14 0 14.28 0 0 Z " fill="#A7926D" transform="translate(131,444)"/>
<path d="M0 0 C7.26 0 14.52 0 22 0 C25.38 7.88 25.38 7.88 26.16 11.08 C26.34 11.81 26.52 12.54 26.71 13.29 C26.98 14.45 26.98 14.45 27.27 15.64 C27.58 16.89 27.58 16.89 27.89 18.17 C28.56 20.91 29.22 23.65 29.89 26.4 C30.35 28.32 30.82 30.24 31.29 32.16 C32.26 36.17 33.23 40.19 34.2 44.2 C35.43 49.34 36.69 54.47 37.94 59.59 C38.91 63.55 39.87 67.52 40.82 71.48 C41.28 73.37 41.74 75.26 42.2 77.15 C42.85 79.8 43.49 82.45 44.12 85.1 C44.41 86.26 44.41 86.26 44.7 87.44 C46 92.96 46 97.06 46 103 C40.06 103 34.12 103 28 103 C27.16 99.63 26.33 96.25 25.5 92.88 C25.26 91.92 25.02 90.97 24.78 89.99 C24.55 89.06 24.33 88.14 24.09 87.18 C23.88 86.33 23.67 85.48 23.46 84.61 C23 82 23 82 23 76 C15.08 76 7.16 76 -1 76 C-1.33 79.3 -1.66 82.6 -2 86 C-2.46 88.67 -2.96 91.34 -3.5 94 C-3.76 95.28 -4.02 96.56 -4.28 97.88 C-5 101 -5 101 -6 103 C-11.61 103 -17.22 103 -23 103 C-23.18 96.77 -22.68 91.36 -21.21 85.32 C-20.93 84.09 -20.93 84.09 -20.64 82.85 C-20.01 80.18 -19.37 77.51 -18.73 74.84 C-18.29 72.97 -17.85 71.1 -17.41 69.23 C-16.48 65.32 -15.55 61.41 -14.62 57.5 C-13.43 52.51 -12.25 47.52 -11.07 42.52 C-10.16 38.66 -9.24 34.8 -8.33 30.94 C-7.89 29.1 -7.46 27.26 -7.02 25.42 C-6.41 22.84 -5.79 20.26 -5.18 17.68 C-5 16.93 -4.82 16.19 -4.64 15.41 C-3.37 10.12 -1.74 5.21 0 0 Z M10 18 C8.85 23.16 7.71 28.32 6.58 33.48 C6.2 35.23 5.81 36.99 5.42 38.74 C4.86 41.27 4.3 43.79 3.75 46.32 C3.58 47.1 3.4 47.88 3.22 48.68 C3.06 49.42 2.9 50.16 2.73 50.92 C2.59 51.57 2.45 52.21 2.3 52.87 C1.92 55.56 2 58.29 2 61 C7.61 61 13.22 61 19 61 C18.48 50.9 17.11 41.51 14.94 31.62 C14.65 30.29 14.37 28.96 14.08 27.62 C13.4 24.41 12.7 21.21 12 18 C11.34 18 10.68 18 10 18 Z " fill="#A9946D" transform="translate(378,444)"/>
<path d="M0 0 C7.26 0 14.52 0 22 0 C25.81 9.7 28.3 19.56 30.77 29.66 C31.21 31.46 31.65 33.26 32.09 35.06 C33.02 38.81 33.93 42.56 34.85 46.31 C36.01 51.1 37.2 55.89 38.38 60.67 C39.3 64.38 40.21 68.09 41.11 71.8 C41.54 73.57 41.98 75.33 42.42 77.09 C46.62 94 46.62 94 46 103 C40.39 103 34.78 103 29 103 C25.86 94 23 85.58 23 76 C15.08 76 7.16 76 -1 76 C-1.33 79.63 -1.66 83.26 -2 87 C-2.45 89.72 -2.95 92.43 -3.5 95.12 C-3.76 96.41 -4.02 97.69 -4.28 99.01 C-5 102 -5 102 -6 103 C-8.86 103.07 -11.7 103.09 -14.56 103.06 C-15.37 103.06 -16.18 103.05 -17.01 103.05 C-19 103.04 -21 103.02 -23 103 C-22.6 92.88 -20.73 83.4 -18.36 73.61 C-17.99 72.06 -17.62 70.51 -17.26 68.96 C-16.49 65.72 -15.72 62.48 -14.94 59.25 C-13.95 55.16 -12.98 51.06 -12.01 46.97 C-8.28 31.23 -4.51 15.53 0 0 Z M10 18 C8.85 23.32 7.72 28.64 6.58 33.96 C6.2 35.77 5.81 37.58 5.42 39.39 C4.86 41.99 4.3 44.59 3.75 47.2 C3.58 48 3.4 48.81 3.22 49.64 C3.06 50.4 2.9 51.16 2.73 51.94 C2.59 52.61 2.45 53.27 2.3 53.96 C1.88 56.48 1.88 56.48 2 61 C7.61 61 13.22 61 19 61 C19.52 51.61 17.54 42.97 15.5 33.88 C15.16 32.33 14.82 30.79 14.49 29.24 C13.67 25.49 12.84 21.75 12 18 C11.34 18 10.68 18 10 18 Z " fill="#A8946D" transform="translate(774,444)"/>
<path d="M0 0 C0.94 -0.02 1.88 -0.05 2.84 -0.07 C10.77 -0.06 16.73 2.23 22.38 7.88 C27.52 16.07 29.06 21.49 29.06 31.56 C23.12 31.56 17.18 31.56 11.06 31.56 C8.06 20.94 8.06 20.94 8.06 17.56 C2.45 17.56 -3.16 17.56 -8.94 17.56 C-9.23 18.92 -9.51 20.29 -9.81 21.69 C-10.39 24.39 -11.06 26.9 -11.97 29.51 C-17.92 48.25 -14.09 72.41 -7.94 90.56 C-6.02 90.5 -4.1 90.41 -2.19 90.31 C-1.12 90.27 -0.05 90.22 1.05 90.17 C4.69 89.43 5.84 88.51 8.06 85.56 C9.16 83.01 9.16 83.01 9.81 80.31 C10.23 78.75 10.64 77.18 11.06 75.56 C17 75.56 22.94 75.56 29.06 75.56 C28.67 87.06 26.14 93.78 18.2 102.05 C12.21 106.28 5.87 107.12 -1.31 107.06 C-2.15 107.06 -2.98 107.05 -3.84 107.05 C-12.11 106.81 -17.56 104.64 -23.69 99.06 C-28.77 92.12 -33.02 82.97 -33.1 74.28 C-33.11 73.44 -33.12 72.6 -33.13 71.73 C-33.13 70.83 -33.14 69.93 -33.14 69 C-33.15 67.59 -33.15 67.59 -33.16 66.16 C-33.17 64.16 -33.17 62.17 -33.18 60.18 C-33.19 57.17 -33.22 54.16 -33.25 51.15 C-33.34 35.02 -32.43 18.55 -20.66 6.14 C-14.58 0.57 -7.96 -0.09 0 0 Z " fill="#A8946E" transform="translate(706.9375,442.4375)"/>
<path d="M0 0 C16.83 0 33.66 0 51 0 C51 4.95 51 9.9 51 15 C39.78 15 28.56 15 17 15 C17 23.91 17 32.82 17 42 C27.89 42 38.78 42 50 42 C50 46.62 50 51.24 50 56 C39.11 56 28.22 56 17 56 C17 66.89 17 77.78 17 89 C29.21 89 41.42 89 54 89 C54 98 54 98 53 103 C35.51 103 18.02 103 0 103 C0 69.01 0 35.02 0 0 Z " fill="#A8946F" transform="translate(910,444)"/>
<path d="M0 0 C16.83 0 33.66 0 51 0 C51 4.95 51 9.9 51 15 C39.78 15 28.56 15 17 15 C17 23.91 17 32.82 17 42 C27.56 42 38.12 42 49 42 C49 46.62 49 51.24 49 56 C38.11 56 27.22 56 16 56 C16 66.89 16 77.78 16 89 C28.21 89 40.42 89 53 89 C53 93.29 53 97.58 53 102 C52 103 52 103 49.91 103.12 C48.98 103.12 48.06 103.12 47.11 103.11 C46.06 103.11 45 103.11 43.91 103.11 C42.8 103.11 41.68 103.1 40.53 103.1 C39.51 103.1 38.48 103.1 37.43 103.09 C33.6 103.09 29.77 103.08 25.94 103.06 C17.38 103.04 8.82 103.02 0 103 C0 69.01 0 35.02 0 0 Z " fill="#A8926D" transform="translate(175,444)"/>
<path d="M0 0 C16.83 0 33.66 0 51 0 C51 4.95 51 9.9 51 15 C39.45 15 27.9 15 16 15 C16 24.24 16 33.48 16 43 C26.89 43 37.78 43 49 43 C49 47.62 49 52.24 49 57 C38.11 57 27.22 57 16 57 C16 72.18 16 87.36 16 103 C10.72 103 5.44 103 0 103 C0 69.01 0 35.02 0 0 Z " fill="#A9946D" transform="translate(838,444)"/>
<path d="M0 0 C16.83 0 33.66 0 51 0 C51 4.95 51 9.9 51 15 C39.45 15 27.9 15 16 15 C16 24.24 16 33.48 16 43 C26.89 43 37.78 43 49 43 C49 47.62 49 52.24 49 57 C38.11 57 27.22 57 16 57 C16 72.18 16 87.36 16 103 C10.72 103 5.44 103 0 103 C0 69.01 0 35.02 0 0 Z " fill="#AA9673" transform="translate(296,444)"/>
<path d="M0 0 C19.8 0 39.6 0 60 0 C60 4.95 60 9.9 60 15 C52.74 15 45.48 15 38 15 C38 44.04 38 73.08 38 103 C32.72 103 27.44 103 22 103 C22 73.96 22 44.92 22 15 C14.74 15 7.48 15 0 15 C0 10.05 0 5.1 0 0 Z " fill="#A7926D" transform="translate(8,444)"/>
<path d="M0 0 C1.13 0 1.13 0 2.27 0.01 C3.13 0 4 0 4.88 -0 C5.83 0.01 6.78 0.02 7.75 0.03 C8.75 0.03 9.74 0.03 10.77 0.03 C14.07 0.03 17.37 0.05 20.67 0.08 C22.95 0.08 25.24 0.09 27.52 0.09 C33.54 0.1 39.56 0.13 45.58 0.16 C51.72 0.19 57.86 0.21 64 0.22 C76.05 0.25 88.11 0.31 100.16 0.37 C100.16 4 100.16 7.63 100.16 11.37 C103.46 11.37 106.76 11.37 110.16 11.37 C110.16 12.69 110.16 14.01 110.16 15.37 C106.86 15.37 103.56 15.37 100.16 15.37 C100.17 16.3 100.18 17.23 100.19 18.18 C100.23 21.62 100.25 25.06 100.27 28.5 C100.28 29.99 100.29 31.48 100.31 32.97 C100.34 35.11 100.35 37.25 100.36 39.39 C100.37 40.68 100.38 41.97 100.39 43.3 C100.16 46.37 100.16 46.37 98.16 48.37 C96.32 48.62 96.32 48.62 94.05 48.61 C92.76 48.61 92.76 48.61 91.44 48.62 C90.49 48.61 89.55 48.6 88.57 48.6 C87.08 48.6 87.08 48.6 85.55 48.6 C82.25 48.6 78.95 48.58 75.65 48.56 C73.37 48.56 71.09 48.56 68.8 48.56 C62.78 48.55 56.76 48.53 50.74 48.51 C44.6 48.49 38.46 48.48 32.32 48.47 C20.27 48.45 8.21 48.41 -3.84 48.37 C-3.89 42.02 -3.92 35.66 -3.95 29.31 C-3.96 27.15 -3.97 24.98 -3.99 22.82 C-4.01 19.72 -4.03 16.61 -4.03 13.51 C-4.04 12.54 -4.06 11.57 -4.07 10.57 C-4.07 9.67 -4.07 8.77 -4.07 7.84 C-4.07 7.05 -4.08 6.26 -4.08 5.44 C-3.75 2.57 -3 0.6 0 0 Z M3.16 6.37 C3.16 18.25 3.16 30.13 3.16 42.37 C4.98 44.19 7.51 43.49 9.93 43.49 C10.76 43.49 11.59 43.49 12.44 43.48 C13.31 43.48 14.18 43.48 15.08 43.48 C17.96 43.48 20.84 43.47 23.73 43.47 C25.72 43.46 27.72 43.46 29.71 43.46 C34.97 43.46 40.23 43.45 45.49 43.44 C50.85 43.43 56.21 43.42 61.57 43.42 C72.1 43.41 82.63 43.39 93.16 43.37 C93.16 31.16 93.16 18.95 93.16 6.37 C63.46 6.37 33.76 6.37 3.16 6.37 Z " fill="#AC9875" transform="translate(435.83906745910645,129.63085651397705)"/>
<path d="M0 0 C0 1.32 0 2.64 0 4 C-14.35 5.15 -28.74 5.55 -43.12 6 C-43.8 6.02 -44.48 6.04 -45.18 6.07 C-102.45 7.88 -159.71 8.18 -217 8 C-217.33 6.68 -217.66 5.36 -218 4 C-210.83 0.41 -199.95 1.7 -192.12 1.47 C-191.45 1.45 -190.77 1.43 -190.07 1.41 C-171.05 0.84 -152.03 0.66 -133 0.47 C-129.96 0.44 -126.93 0.41 -123.89 0.37 C-82.59 -0.06 -41.3 -0.12 0 0 Z " fill="#AB9773" transform="translate(597,222)"/>
<path d="M0 0 C7.79 -0.02 15.58 -0.04 23.37 -0.05 C26.98 -0.06 30.6 -0.06 34.21 -0.08 C37.7 -0.09 41.19 -0.09 44.68 -0.09 C46.66 -0.1 48.64 -0.11 50.63 -0.11 C51.83 -0.11 53.03 -0.11 54.27 -0.11 C55.86 -0.12 55.86 -0.12 57.48 -0.12 C60 0 60 0 62 1 C62.05 3.92 62.09 6.83 62.12 9.75 C62.14 10.57 62.16 11.4 62.18 12.25 C62.19 13.45 62.19 13.45 62.2 14.67 C62.21 15.77 62.21 15.77 62.23 16.89 C61.97 19.3 61.12 20.87 60 23 C52.6 23.05 45.21 23.08 37.81 23.1 C34.37 23.11 30.94 23.13 27.5 23.15 C23.56 23.18 19.61 23.19 15.66 23.2 C14.43 23.21 13.19 23.22 11.92 23.23 C10.78 23.23 9.64 23.23 8.46 23.23 C7.45 23.23 6.44 23.24 5.4 23.24 C3 23 3 23 1 21 C0.59 18.75 0.59 18.75 0.38 16 C0.3 15.11 0.23 14.23 0.15 13.31 C0.02 10.46 -0.01 7.64 -0.01 4.79 C-0.01 3.89 -0.01 3 -0.01 2.07 C-0 1.39 -0 0.7 0 0 Z M6 6 C6 9.63 6 13.26 6 17 C22.5 17 39 17 56 17 C58 13.01 58.2 11.3 58 7 C40.66 6.39 23.35 5.81 6 6 Z " fill="#AF9C7A" transform="translate(251,240)"/>
<path d="M0 0 C1.05 0 2.09 0 3.17 0.01 C4.35 0.01 5.53 0.01 6.75 0.01 C8.03 0.01 9.32 0.02 10.64 0.02 C12.61 0.02 12.61 0.02 14.61 0.03 C18.09 0.03 21.58 0.04 25.06 0.05 C28.61 0.06 32.16 0.07 35.72 0.07 C42.69 0.08 49.67 0.1 56.64 0.12 C56.67 3.6 56.69 7.08 56.7 10.56 C56.71 11.55 56.72 12.54 56.73 13.57 C56.73 14.51 56.73 15.46 56.74 16.43 C56.74 17.3 56.75 18.18 56.75 19.08 C56.64 21.12 56.64 21.12 55.64 22.12 C53.78 22.22 51.91 22.26 50.05 22.27 C48.86 22.27 47.66 22.28 46.43 22.28 C45.13 22.29 43.83 22.29 42.49 22.29 C41.15 22.29 39.81 22.29 38.47 22.3 C35.66 22.3 32.85 22.31 30.04 22.31 C26.43 22.31 22.83 22.32 19.22 22.34 C16.45 22.35 13.69 22.35 10.92 22.35 C8.94 22.35 6.97 22.36 4.99 22.37 C3.79 22.37 2.59 22.37 1.36 22.36 C-0.23 22.37 -0.23 22.37 -1.85 22.37 C-4.36 22.12 -4.36 22.12 -6.36 20.12 C-7.07 13.57 -5.26 7.36 -3.36 1.12 C-2.36 0.12 -2.36 0.12 0 0 Z M3.64 5.12 C1.97 8.09 1.97 8.09 2.64 16.12 C17.82 16.12 33 16.12 48.64 16.12 C48.97 12.82 49.3 9.52 49.64 6.12 C48.66 4.92 48.66 4.92 46.81 5 C45.62 5 45.62 5 44.4 5.01 C43.04 5.01 43.04 5.01 41.67 5.01 C40.2 5.01 40.2 5.01 38.7 5.02 C37.7 5.02 36.7 5.03 35.68 5.03 C32.48 5.03 29.28 5.05 26.08 5.06 C23.91 5.06 21.75 5.07 19.59 5.07 C14.27 5.08 8.96 5.1 3.64 5.12 Z " fill="#AD9B77" transform="translate(58.36012268066406,240.87974548339844)"/>
<path d="M0 0 C21.12 0 42.24 0 64 0 C64 11.35 64 11.35 63.12 15.5 C62.96 16.31 62.8 17.13 62.63 17.97 C62 20 62 20 60 22 C57.56 22.24 57.56 22.24 54.45 22.23 C52.71 22.23 52.71 22.23 50.93 22.23 C49.67 22.22 48.41 22.21 47.12 22.2 C45.83 22.19 44.55 22.19 43.22 22.19 C39.81 22.18 36.39 22.16 32.98 22.14 C29.49 22.12 26.01 22.11 22.52 22.1 C15.68 22.08 8.84 22.04 2 22 C0 15 0 15 0 0 Z M8 5 C8 8.63 8 12.26 8 16 C8.98 17.2 8.98 17.2 10.83 17.12 C12.02 17.12 12.02 17.12 13.24 17.11 C14.15 17.11 15.05 17.11 15.97 17.11 C17.44 17.11 17.44 17.11 18.94 17.1 C20.44 17.1 20.44 17.1 21.96 17.09 C25.16 17.09 28.36 17.08 31.56 17.06 C33.73 17.06 35.89 17.05 38.05 17.05 C43.37 17.04 48.68 17.02 54 17 C55.41 12.77 55 9.89 55 5 C39.49 5 23.98 5 8 5 Z " fill="#A8946D" transform="translate(756,244)"/>
<path d="M0 0 C-0.33 1.65 -0.66 3.3 -1 5 C-1.65 5.01 -2.31 5.02 -2.98 5.03 C-42.4 5.64 -42.4 5.64 -81.81 6.5 C-82.56 6.52 -83.3 6.54 -84.07 6.55 C-90.99 6.72 -97.89 6.96 -104.8 7.53 C-113.66 8.21 -122.5 8.11 -131.38 8.06 C-133.09 8.06 -134.81 8.05 -136.53 8.05 C-140.69 8.04 -144.84 8.02 -149 8 C-148.67 6.35 -148.34 4.7 -148 3 C-138.34 1.86 -128.71 1.36 -119 0.94 C-117.47 0.87 -117.47 0.87 -115.92 0.8 C-77.32 -0.82 -38.62 -0.17 0 0 Z " fill="#A99571" transform="translate(599,244)"/>
<path d="M0 0 C1.13 0 2.27 0.01 3.43 0.01 C4.71 0.01 5.99 0.01 7.31 0.01 C8.72 0.02 10.12 0.03 11.53 0.05 C12.96 0.05 14.39 0.05 15.82 0.05 C19.59 0.06 23.36 0.08 27.14 0.1 C30.98 0.12 34.83 0.13 38.68 0.14 C46.23 0.16 53.78 0.2 61.33 0.24 C61.36 3.39 61.38 6.53 61.39 9.68 C61.4 10.58 61.41 11.47 61.42 12.4 C61.42 13.25 61.42 14.11 61.43 14.99 C61.43 15.78 61.44 16.57 61.44 17.38 C61.33 19.24 61.33 19.24 60.33 20.24 C58.45 20.35 56.56 20.39 54.68 20.4 C52.87 20.42 52.87 20.42 51.02 20.43 C49.7 20.44 48.39 20.44 47.03 20.44 C45.67 20.45 44.32 20.46 42.96 20.46 C40.11 20.47 37.26 20.48 34.41 20.48 C30.76 20.49 27.12 20.51 23.47 20.54 C20.66 20.56 17.86 20.56 15.05 20.56 C13.05 20.57 11.06 20.59 9.06 20.61 C7.84 20.6 6.62 20.6 5.37 20.6 C4.3 20.6 3.22 20.6 2.12 20.61 C-1.06 20.19 -2.44 19.53 -4.67 17.24 C-5.02 14.56 -5.14 12.34 -5.05 9.68 C-5.04 8.99 -5.04 8.31 -5.04 7.6 C-4.91 0.44 -4.91 0.44 0 0 Z M7.33 4.24 C5.58 7.36 5.58 7.36 6.33 16.24 C20.85 16.24 35.37 16.24 50.33 16.24 C50.33 12.28 50.33 8.32 50.33 4.24 C36.14 4.24 21.95 4.24 7.33 4.24 Z " fill="#A8936E" transform="translate(656.6701965332031,244.75949096679688)"/>
<path d="M0 0 C1.21 -0.01 2.43 -0.02 3.68 -0.03 C5.65 -0.03 5.65 -0.03 7.66 -0.03 C9.02 -0.03 10.38 -0.03 11.73 -0.04 C14.58 -0.05 17.42 -0.05 20.27 -0.04 C23.92 -0.04 27.57 -0.05 31.22 -0.08 C34.03 -0.09 36.83 -0.09 39.64 -0.09 C41.64 -0.09 43.64 -0.1 45.64 -0.12 C46.85 -0.11 48.06 -0.1 49.31 -0.1 C50.38 -0.1 51.45 -0.1 52.56 -0.1 C53.81 0.09 53.81 0.09 55.09 0.27 C57.12 3.32 57.34 3.88 57.29 7.29 C57.28 8.04 57.27 8.8 57.27 9.58 C57.24 10.76 57.24 10.76 57.22 11.96 C57.21 12.76 57.2 13.56 57.19 14.38 C57.17 16.34 57.13 18.31 57.09 20.27 C48.78 20.34 40.47 20.4 32.16 20.43 C28.3 20.45 24.44 20.47 20.59 20.5 C16.86 20.53 13.14 20.55 9.42 20.56 C8 20.56 6.58 20.58 5.16 20.59 C3.17 20.61 1.18 20.61 -0.81 20.62 C-1.94 20.62 -3.07 20.63 -4.24 20.64 C-5.12 20.52 -6 20.4 -6.91 20.27 C-9.33 16.65 -9.24 13.91 -9.22 9.71 C-9.24 9.03 -9.25 8.34 -9.27 7.64 C-9.27 5.65 -9.27 5.65 -8.91 2.27 C-5.44 -0.04 -4.09 0.02 0 0 Z M2.09 4.27 C2.09 8.23 2.09 12.19 2.09 16.27 C16.61 16.27 31.13 16.27 46.09 16.27 C46.09 12.64 46.09 9.01 46.09 5.27 C45.12 4.08 45.12 4.08 43.34 4.15 C42.2 4.16 42.2 4.16 41.03 4.16 C40.17 4.16 39.31 4.16 38.42 4.16 C37.02 4.17 37.02 4.17 35.59 4.18 C34.16 4.18 34.16 4.18 32.7 4.18 C29.64 4.19 26.59 4.2 23.53 4.21 C21.46 4.22 19.39 4.22 17.33 4.23 C12.25 4.24 7.17 4.25 2.09 4.27 Z " fill="#A7926E" transform="translate(159.908447265625,241.725341796875)"/>
<path d="M0 0 C7.27 -0.05 14.53 -0.08 21.8 -0.1 C25.18 -0.11 28.55 -0.13 31.92 -0.15 C35.8 -0.18 39.68 -0.19 43.55 -0.2 C44.77 -0.21 45.98 -0.22 47.24 -0.23 C48.36 -0.23 49.48 -0.23 50.63 -0.23 C51.62 -0.23 52.61 -0.24 53.63 -0.24 C56 0 56 0 58 2 C58.23 4.06 58.23 4.06 58.2 6.57 C58.19 7.47 58.18 8.36 58.18 9.29 C58.16 10.22 58.14 11.16 58.12 12.12 C58.12 13.07 58.11 14.01 58.1 14.99 C58.07 17.33 58.04 19.66 58 22 C50.59 22.02 43.17 22.04 35.76 22.05 C32.31 22.06 28.87 22.06 25.43 22.08 C21.47 22.09 17.52 22.09 13.57 22.1 C11.7 22.11 11.7 22.11 9.8 22.11 C8.09 22.11 8.09 22.11 6.35 22.11 C5.34 22.12 4.33 22.12 3.28 22.12 C1 22 1 22 0 21 C-0.09 19.44 -0.11 17.87 -0.1 16.31 C-0.09 15.36 -0.09 14.42 -0.09 13.45 C-0.08 12.45 -0.07 11.46 -0.06 10.44 C-0.06 9.44 -0.05 8.44 -0.05 7.42 C-0.04 4.94 -0.02 2.47 0 0 Z M4 6 C4 9.3 4 12.6 4 16 C20.5 16 37 16 54 16 C54 13.03 54 10.06 54 7 C53 5.78 53 5.78 51.02 5.88 C50.15 5.88 49.28 5.88 48.39 5.89 C47.41 5.89 46.43 5.89 45.42 5.89 C44.35 5.89 43.28 5.9 42.18 5.9 C41.1 5.9 40.01 5.91 38.89 5.91 C35.41 5.91 31.92 5.92 28.44 5.94 C26.08 5.94 23.73 5.95 21.37 5.95 C15.58 5.96 9.79 5.98 4 6 Z " fill="#A9936F" transform="translate(861,244)"/>
<path d="M0 0 C3.45 1.24 4.48 2.17 7 5 C7.44 8.31 7.44 8.31 7 11 C0.38 10.25 0.38 10.25 -3 8 C-7.88 7.76 -12.18 8.14 -17 9 C-17.05 11.06 -17.09 13.12 -17.12 15.19 C-17.16 16.91 -17.16 16.91 -17.2 18.67 C-17 21.96 -16.59 24.12 -15 27 C-12.2 27.93 -10.46 28.13 -7.56 28.12 C-6.8 28.13 -6.04 28.13 -5.25 28.13 C-2.99 28 -1.13 27.81 1 27 C2.3 24 2.3 24 3 21 C-0.96 21 -4.92 21 -9 21 C-9 19.02 -9 17.04 -9 15 C-2.73 15 3.54 15 10 15 C10.56 22.45 10.5 26.61 5.7 32.44 C0.83 36.9 -4.3 36.42 -10.64 36.31 C-14.86 35.92 -16.96 34.96 -20 32 C-20.95 31.24 -21.9 30.47 -22.88 29.69 C-26.27 25.37 -25.67 19.87 -25.49 14.65 C-24.85 9.84 -23.52 6.37 -20 3 C-14.03 -1.51 -7.14 -0.82 0 0 Z " fill="#AE9977" transform="translate(740,602)"/>
<path d="M0 0 C5.37 0.02 10.74 0.03 16.12 0.04 C26.55 0.06 36.98 0.09 47.42 0.14 C47.42 1.46 47.42 2.78 47.42 4.14 C38.66 4.93 29.95 5.31 21.15 5.4 C19.02 5.42 16.89 5.45 14.76 5.47 C10.23 5.53 5.7 5.59 1.17 5.64 C-4.8 5.71 -10.76 5.78 -16.72 5.86 C-17.44 5.87 -18.16 5.87 -18.9 5.88 C-27.92 6.01 -36.9 6.3 -45.91 6.93 C-52.82 7.32 -59.73 7.24 -66.65 7.2 C-68.11 7.19 -69.57 7.19 -71.04 7.19 C-74.55 7.18 -78.07 7.16 -81.58 7.14 C-81.58 5.49 -81.58 3.84 -81.58 2.14 C-54.37 0.18 -27.27 -0.12 0 0 Z " fill="#AE9976" transform="translate(519.5831909179688,200.8626708984375)"/>
<path d="M0 0 C3.69 -0.08 7.38 -0.16 11.19 -0.25 C12.92 -0.3 12.92 -0.3 14.69 -0.36 C15.61 -0.37 16.53 -0.38 17.48 -0.39 C18.42 -0.41 19.36 -0.43 20.32 -0.45 C23.92 0.16 25.52 1.35 28 4 C28.63 6.78 28.63 6.78 28.63 9.94 C28.63 11.65 28.63 11.65 28.63 13.4 C28.61 14.59 28.59 15.78 28.56 17 C28.57 18.19 28.58 19.38 28.6 20.6 C28.52 29.27 28.52 29.27 26.32 32.35 C23.43 34.4 21.88 34.47 18.36 34.39 C16.91 34.38 16.91 34.38 15.44 34.36 C13.61 34.31 13.61 34.31 11.75 34.25 C7.87 34.17 4 34.09 0 34 C0 22.78 0 11.56 0 0 Z M6 5 C5.98 6.3 5.96 7.6 5.94 8.94 C5.93 9.67 5.91 10.4 5.9 11.15 C5.79 13.02 5.79 13.02 7 14 C9.14 14.13 11.29 14.18 13.44 14.19 C14.61 14.2 15.79 14.22 17 14.23 C20.11 14.32 20.11 14.32 22 12 C22.17 8.92 22.17 8.92 22 6 C19 4.5 16.21 4.91 12.88 4.94 C11.59 4.95 10.31 4.96 8.99 4.96 C8 4.98 7.02 4.99 6 5 Z M5 19 C4.93 20.69 4.92 22.38 4.94 24.06 C4.95 24.98 4.96 25.9 4.96 26.85 C4.98 27.56 4.99 28.27 5 29 C7.63 29.05 10.25 29.09 12.88 29.12 C13.99 29.15 13.99 29.15 15.14 29.18 C17.09 29.19 19.05 29.1 21 29 C23.32 27.12 23.32 27.12 23.19 24 C23.2 21.08 23.2 21.08 22 19 C18.66 17.77 15.34 17.87 11.81 17.88 C10.75 17.87 9.68 17.87 8.58 17.87 C6.07 17.71 6.07 17.71 5 19 Z " fill="#A8946F" transform="translate(355,603)"/>
<path d="M0 0 C3.88 -0.08 7.75 -0.16 11.75 -0.25 C12.97 -0.29 14.18 -0.32 15.44 -0.36 C16.88 -0.38 16.88 -0.38 18.36 -0.39 C19.34 -0.41 20.33 -0.43 21.34 -0.45 C24.83 0.14 25.95 1.14 28 4 C28.52 6.78 28.52 6.78 28.53 9.94 C28.54 11.08 28.54 12.22 28.55 13.4 C28.53 14.59 28.52 15.78 28.5 17 C28.52 18.19 28.53 19.38 28.55 20.6 C28.54 21.74 28.54 22.89 28.53 24.06 C28.53 25.11 28.52 26.15 28.52 27.22 C27.86 30.75 26.91 31.93 24 34 C21.34 34.45 21.34 34.45 18.36 34.39 C16.91 34.38 16.91 34.38 15.44 34.36 C13.61 34.31 13.61 34.31 11.75 34.25 C7.87 34.17 4 34.09 0 34 C0 22.78 0 11.56 0 0 Z M5 5 C5 7.64 5 10.28 5 13 C9.76 15.38 17 14.33 22 13 C22.04 10.67 22.04 8.33 22 6 C20.81 4.58 20.81 4.58 17.4 4.9 C15.91 4.91 14.43 4.92 12.94 4.94 C11.8 4.94 11.8 4.94 10.64 4.95 C8.76 4.96 6.88 4.98 5 5 Z M5 18 C5 21.63 5 25.26 5 29 C7.63 29.05 10.25 29.09 12.88 29.12 C13.99 29.15 13.99 29.15 15.14 29.18 C17.09 29.19 19.05 29.1 21 29 C23.41 27.04 23.41 27.04 23.12 23.38 C23.08 22.26 23.04 21.15 23 20 C19.3 17.62 16.07 17.79 11.75 17.88 C10.49 17.89 9.22 17.91 7.92 17.93 C6.96 17.95 5.99 17.98 5 18 Z " fill="#A99671" transform="translate(223,603)"/>
<path d="M0 0 C1.98 0 3.96 0 6 0 C6 4.29 6 8.58 6 13 C11.81 8 11.81 8 17.19 2.56 C20 0 20 0 22.88 -0.38 C23.93 -0.19 23.93 -0.19 25 0 C25.38 2.62 25.38 2.62 25 6 C23.52 7.65 21.98 8.97 20.21 10.31 C18.72 12.04 18.72 12.04 19.06 14.84 C20.45 19.5 23.27 22.58 26.29 26.32 C28.14 29.23 28.38 30.62 28 34 C25.34 34.38 25.34 34.38 22 34 C19.9 32.01 18.33 30.28 16.62 28 C16.18 27.43 15.73 26.86 15.26 26.27 C14.16 24.86 13.08 23.43 12 22 C10.35 22.33 8.7 22.66 7 23 C6.67 26.63 6.34 30.26 6 34 C4.02 34 2.04 34 0 34 C0 22.78 0 11.56 0 0 Z " fill="#AB9671" transform="translate(553,603)"/>
<path d="M0 0 C2.31 1.62 2.31 1.62 4.31 3.62 C4.44 6.75 4.44 6.75 4.31 9.62 C-2.31 8.88 -2.31 8.88 -5.69 6.62 C-9.87 6.43 -13.67 6.29 -17.69 7.62 C-19.33 13.28 -20.04 19.97 -17.31 25.31 C-13.26 27.34 -9.13 27.41 -4.69 26.62 C-3.33 25.66 -1.99 24.66 -0.69 23.62 C2.06 23.44 2.06 23.44 4.31 23.62 C4.75 26.31 4.75 26.31 4.31 29.62 C0.15 34.08 -3.07 35 -9.12 35.25 C-16.21 34.97 -20.41 32.87 -25.36 27.97 C-27.3 24.55 -27.26 21.21 -27.25 17.38 C-27.25 16.61 -27.25 15.85 -27.25 15.07 C-27.08 9.63 -26.12 6.1 -22.39 1.97 C-16.08 -3.02 -7.31 -2.73 0 0 Z " fill="#AC9774" transform="translate(525.6875,603.375)"/>
<path d="M0 0 C0.76 0.08 1.53 0.16 2.31 0.25 C4.66 4.89 6.99 9.53 9.29 14.19 C10.17 15.97 11.06 17.74 11.96 19.52 C14.47 24.7 15.95 28.47 15.31 34.25 C13.06 34.56 13.06 34.56 10.31 34.25 C8 32 8 32 6.31 29.25 C6.31 27.93 6.31 26.61 6.31 25.25 C1.69 25.25 -2.93 25.25 -7.69 25.25 C-8.02 27.23 -8.35 29.21 -8.69 31.25 C-9.68 32.74 -9.68 32.74 -10.69 34.25 C-13.31 34.44 -13.31 34.44 -15.69 34.25 C-16.31 26.39 -14.42 21.39 -10.88 14.44 C-10.42 13.51 -9.97 12.58 -9.51 11.63 C-3.94 0.37 -3.94 0.37 0 0 Z M-0.69 11.25 C-2.98 13.81 -3.69 14.73 -3.69 18.25 C-1.71 18.25 0.27 18.25 2.31 18.25 C1.98 15.94 1.65 13.63 1.31 11.25 C0.65 11.25 -0.01 11.25 -0.69 11.25 Z " fill="#AC9772" transform="translate(463.6875,602.75)"/>
<path d="M0 0 C5.29 -0.06 5.29 -0.06 10.69 -0.12 C11.79 -0.14 12.89 -0.16 14.03 -0.18 C14.91 -0.19 15.79 -0.19 16.7 -0.2 C17.59 -0.21 18.49 -0.22 19.41 -0.23 C22.3 0.03 24.41 0.73 27 2 C28.96 4.79 29.27 7.14 29.25 10.5 C29.26 11.25 29.26 12.01 29.27 12.78 C28.96 15.33 28.43 16.87 27 19 C24.13 20.75 22.01 21.24 18.67 21.2 C17.87 21.19 17.07 21.18 16.25 21.18 C15.42 21.16 14.6 21.14 13.75 21.12 C12.91 21.12 12.07 21.11 11.2 21.1 C9.14 21.07 7.07 21.04 5 21 C5 25.29 5 29.58 5 34 C3.35 34 1.7 34 0 34 C0 22.78 0 11.56 0 0 Z M6 6 C6 9.3 6 12.6 6 16 C8.46 16.05 10.92 16.09 13.38 16.12 C14.07 16.14 14.77 16.16 15.49 16.18 C17.33 16.19 19.17 16.1 21 16 C23.4 14.05 23.4 14.05 23.19 10.44 C23.39 7.17 23.39 7.17 22 6 C19.3 5.93 16.63 5.91 13.94 5.94 C12.8 5.94 12.8 5.94 11.64 5.95 C9.76 5.96 7.88 5.98 6 6 Z " fill="#A8936F" transform="translate(637,603)"/>
<path d="M0 0 C4.51 0.02 9.03 0.03 13.54 0.04 C22.34 0.06 31.13 0.09 39.93 0.14 C39.6 1.46 39.27 2.78 38.93 4.14 C29.68 4.48 20.43 4.82 11.18 5.14 C10.16 5.17 10.16 5.17 9.12 5.21 C-12.95 5.97 -34.99 6.44 -57.07 6.14 C-57.07 4.82 -57.07 3.5 -57.07 2.14 C-38.14 -0.62 -19.07 -0.1 0 0 Z " fill="#AC9A76" transform="translate(495.06756591796875,183.8626708984375)"/>
<path d="M0 0 C3.7 -0.37 5.39 -0.5 8.34 1.9 C9.01 2.72 9.68 3.53 10.38 4.38 C11.06 5.19 11.75 6 12.46 6.84 C14 9 14 9 14 11 C14.99 11 15.98 11 17 11 C17.27 10.42 17.54 9.83 17.82 9.23 C19.68 5.7 22.01 2.66 25 0 C27.88 -0.44 27.88 -0.44 30 0 C30.63 1.79 30.63 1.79 31 4 C29.46 6.56 27.93 8.83 26.12 11.19 C25.65 11.83 25.18 12.47 24.69 13.13 C21.32 17.68 21.32 17.68 20 19 C19.79 21.14 19.63 23.29 19.5 25.44 C19.11 31.78 19.11 31.78 18 34 C16 34.04 14 34.04 12 34 C10.14 32.14 10.68 28.69 10.5 26.19 C9.74 18.5 7.08 14.45 1.9 8.68 C-0.35 5.51 -0.39 3.8 0 0 Z " fill="#AA9571" transform="translate(271,603)"/>
<path d="M0 0 C1.15 0.71 2.3 1.43 3.45 2.15 C9.36 4.69 16.48 4.63 22.83 5.18 C22.83 6.83 22.83 8.48 22.83 10.18 C4.89 11.06 4.89 11.06 -3.9 6.29 C-7.63 4.46 -11.09 4.59 -15.02 5.69 C-17.6 6.27 -19.95 6.29 -22.59 6.27 C-23.61 6.27 -24.64 6.27 -25.7 6.26 C-26.76 6.26 -27.82 6.25 -28.92 6.24 C-30 6.23 -31.08 6.23 -32.19 6.22 C-34.85 6.21 -37.51 6.2 -40.17 6.18 C-39.84 4.86 -39.51 3.54 -39.17 2.18 C-34.74 0.82 -30.16 0.81 -25.57 0.57 C-2.06 -0.78 -2.06 -0.78 0 0 Z " fill="#AB9672" transform="translate(494.16796875,142.82421875)"/>
<path d="M0 0 C2.64 0.45 4.84 0.92 7.25 2.12 C11.21 3.39 14.98 2.98 19 2 C19.66 1.34 20.32 0.68 21 0 C28.06 -0.58 28.06 -0.58 31.44 1.5 C35.19 3.7 38.74 3.62 43 3 C45.28 1.6 45.28 1.6 47 0 C48.32 0 49.64 0 51 0 C51.31 2.25 51.31 2.25 51 5 C48.29 7.78 46.59 8.9 42.73 9.53 C35.35 9.47 30.27 9.01 24 5 C23.48 5.65 22.96 6.3 22.43 6.97 C18.43 10.32 14.39 9.54 9.38 9.39 C4.94 8.88 3.01 8.28 0 5 C-0.38 2.25 -0.38 2.25 0 0 Z " fill="#AB9671" transform="translate(629,150)"/>
<path d="M0 0 C1.65 0 3.3 0 5 0 C5 9.24 5 18.48 5 28 C11.27 28 17.54 28 24 28 C24 29.65 24 31.3 24 33 C16.08 33 8.16 33 0 33 C0 22.11 0 11.22 0 0 Z " fill="#A8936E" transform="translate(406,604)"/>
<path d="M0 0 C18.81 0 37.62 0 57 0 C57 1.32 57 2.64 57 4 C38.19 4 19.38 4 0 4 C0 2.68 0 1.36 0 0 Z " fill="#AA9671" transform="translate(455,122)"/>
<path d="M0 0 C3.89 -0.03 7.78 -0.04 11.68 -0.05 C13.63 -0.06 15.59 -0.08 17.55 -0.09 C25.75 -0.11 33.83 0.23 42 1 C41.22 4.85 41.22 4.85 39.24 6.23 C36.74 7.09 34.77 7.27 32.12 7.25 C31.3 7.26 30.48 7.26 29.63 7.27 C27 7 27 7 24.36 6.02 C19.64 4.58 15.04 4.53 10.12 4.38 C8.66 4.32 8.66 4.32 7.17 4.26 C4.78 4.16 2.39 4.08 0 4 C0 2.68 0 1.36 0 0 Z " fill="#AD9B77" transform="translate(466,161)"/>
<path d="M0 0 C1.98 0 3.96 0 6 0 C6 10.89 6 21.78 6 33 C4.02 33 2.04 33 0 33 C0 22.11 0 11.22 0 0 Z " fill="#A7936D" transform="translate(687,604)"/>
<path d="M0 0 C1.03 0 1.03 0 2.08 0 C4.27 0.01 6.46 0.02 8.65 0.04 C10.13 0.04 11.62 0.04 13.1 0.05 C16.74 0.06 20.38 0.08 24.02 0.1 C23.36 1.75 22.7 3.4 22.02 5.1 C11.79 5.1 1.56 5.1 -8.98 5.1 C-8.98 3.78 -8.98 2.46 -8.98 1.1 C-6 -0.39 -3.31 -0.01 0 0 Z " fill="#AC9773" transform="translate(548.9765625,183.90234375)"/>
<path d="M0 0 C10.23 0 20.46 0 31 0 C30.67 1.32 30.34 2.64 30 4 C26.21 4.89 22.71 5.12 18.82 5.1 C17.67 5.09 16.51 5.09 15.32 5.09 C14.12 5.08 12.92 5.07 11.69 5.06 C10.47 5.06 9.25 5.05 8 5.05 C5 5.04 2 5.02 -1 5 C-0.67 3.35 -0.34 1.7 0 0 Z " fill="#AA9571" transform="translate(520,121)"/>
<path d="M0 0 C6.75 0.75 6.75 0.75 9 3 C11.86 3.23 14.2 3.4 17 3 C18.69 1.56 18.69 1.56 20 0 C22.69 -0.19 22.69 -0.19 25 0 C25.31 2.25 25.31 2.25 25 5 C22.34 7.69 20.64 8.89 16.88 9.53 C6.81 9.44 6.81 9.44 3.25 7.31 C0.8 4.8 0.19 3.47 0 0 Z " fill="#AB9772" transform="translate(741,93)"/>
<path d="M0 0 C16.5 0 33 0 50 0 C50 0.99 50 1.98 50 3 C33.5 3 17 3 0 3 C0 2.01 0 1.02 0 0 Z " fill="#A7936C" transform="translate(377,186)"/>
<path d="M0 0 C6.75 0.75 6.75 0.75 9 3 C14.48 3.83 18.43 3.22 23 0 C23.99 0 24.98 0 26 0 C25.5 3.66 24.98 5.71 22 8 C16.43 9.86 8.38 10.62 2.97 8.02 C1.62 6.75 1.62 6.75 0 4 C0 2.68 0 1.36 0 0 Z " fill="#AC9975" transform="translate(769,93)"/>
<path d="M0 0 C5.75 0.88 5.75 0.88 8 2 C9.66 2.12 11.33 2.18 13 2.19 C14.33 2.21 14.33 2.21 15.69 2.23 C18.2 2.23 18.2 2.23 20 0 C22.62 -0.12 22.62 -0.12 25 0 C25 1.65 25 3.3 25 5 C19.79 8.47 16.24 9.82 10 9 C2.18 7.33 2.18 7.33 0 4 C0 2.68 0 1.36 0 0 Z " fill="#AB9975" transform="translate(685,93)"/>
<path d="M0 0 C12.21 0 24.42 0 37 0 C37 1.32 37 2.64 37 4 C24.79 4 12.58 4 0 4 C0 2.68 0 1.36 0 0 Z " fill="#A8936D" transform="translate(372,329)"/>
<path d="M0 0 C5.75 0.75 5.75 0.75 8 3 C12.07 3.6 15.82 3.77 19.31 1.5 C19.87 1 20.43 0.51 21 0 C22.32 0 23.64 0 25 0 C25.31 2.25 25.31 2.25 25 5 C22.26 7.8 20.55 8.91 16.66 9.57 C5.75 9.55 5.75 9.55 2.12 6.75 C0 4 0 4 0 0 Z " fill="#A9946F" transform="translate(604,93)"/>
<path d="M0 0 C3.37 0.55 5.08 1.05 8 3 C10.64 3.35 10.64 3.35 13.5 3.31 C14.94 3.34 14.94 3.34 16.41 3.36 C19.45 2.94 19.96 2.15 22 0 C23.32 0 24.64 0 26 0 C26.38 2.25 26.38 2.25 26 5 C22.22 9 18.93 9.32 13.5 9.5 C8.04 9.32 4.85 8.95 1 5 C0.12 2.25 0.12 2.25 0 0 Z " fill="#AB9774" transform="translate(638,168)"/>
<path d="M0 0 C4.75 0.75 4.75 0.75 7 3 C9.53 3.36 9.53 3.36 12.38 3.31 C13.33 3.33 14.29 3.35 15.27 3.36 C18.4 2.95 19.59 1.94 22 0 C22.99 0 23.98 0 25 0 C25.35 3.13 25.32 4.55 23.45 7.14 C20.09 9.69 17.8 9.53 13.62 9.5 C12.34 9.51 11.05 9.52 9.73 9.53 C5.47 8.93 3.27 7.75 0 5 C-0.38 2.25 -0.38 2.25 0 0 Z " fill="#AF9B78" transform="translate(924,169)"/>
<path d="M0 0 C5.75 0.75 5.75 0.75 8 3 C10.67 3.24 10.67 3.24 13.62 3.12 C14.63 3.11 15.63 3.09 16.66 3.07 C17.82 3.04 17.82 3.04 19 3 C19.33 2.01 19.66 1.02 20 0 C21.65 0 23.3 0 25 0 C24.72 3.36 24.28 4.72 21.85 7.14 C16.91 10.36 11.69 9.83 6 9 C3.03 7.65 2.09 6.63 0 4 C0 2.68 0 1.36 0 0 Z " fill="#AE9A77" transform="translate(709,150)"/>
<path d="M0 0 C2.66 0.46 4.96 0.98 7.44 2.06 C10.51 3.19 12.75 3.35 16 3 C17.02 2.02 18.02 1.02 19 0 C21.69 -0.19 21.69 -0.19 24 0 C24.31 2.25 24.31 2.25 24 5 C22.25 7.31 22.25 7.31 19 9 C13.7 9.73 8.06 10.14 3.31 7.31 C0.8 4.8 0.19 3.51 0 0 Z " fill="#AB9771" transform="translate(795,114)"/>
<path d="M0 0 C1.11 0.09 1.11 0.09 2.25 0.19 C1.97 3.55 1.53 4.91 -0.9 7.33 C-5.83 10.55 -11.06 9.9 -16.75 9.19 C-19.56 8.18 -20.58 7.35 -22.75 5.19 C-23.62 2.94 -23.62 2.94 -23.75 1.19 C-16.88 2.06 -16.88 2.06 -15.75 3.19 C-11.68 3.62 -7.97 4 -4.5 1.69 C-2.75 0.19 -2.75 0.19 0 0 Z " fill="#AD9974" transform="translate(341.75,112.8125)"/>
<path d="M0 0 C4.75 0.75 4.75 0.75 7 3 C9.56 3.36 9.56 3.36 12.44 3.31 C13.89 3.34 13.89 3.34 15.37 3.36 C18.44 2.94 18.95 2.17 21 0 C22.32 0 23.64 0 25 0 C25.38 2.25 25.38 2.25 25 5 C22.03 8.14 20.18 8.87 15.88 9.35 C9.95 9.5 5.96 9.53 1 6 C0 5 0 5 -0.06 2.44 C-0.04 1.63 -0.02 0.83 0 0 Z " fill="#AA9671" transform="translate(210,113)"/>
<path d="M0 0 C1.32 0 2.64 0 4 0 C3.72 3.34 3.27 4.73 0.88 7.14 C-4.29 10.48 -10.06 9.69 -16 9 C-18.9 8.01 -19.85 7.28 -22 5 C-22 3.68 -22 2.36 -22 1 C-15.12 1.88 -15.12 1.88 -14 3 C-12.21 3.15 -10.42 3.22 -8.62 3.25 C-7.16 3.29 -7.16 3.29 -5.66 3.33 C-2.55 2.94 -2.07 2.2 0 0 Z " fill="#AA9671" transform="translate(129,168)"/>
<path d="M0 0 C3.37 0.55 5.08 1.05 8 3 C13.77 3.75 18.2 3.49 23 0 C23.99 0 24.98 0 26 0 C25.72 3.36 25.28 4.73 22.85 7.14 C17.91 10.36 12.69 9.71 7 9 C4.12 8.02 3.19 7.25 1 5 C0.12 2.25 0.12 2.25 0 0 Z " fill="#AD9A77" transform="translate(668,168)"/>
<path d="M0 0 C0.76 0.06 1.53 0.12 2.31 0.19 C2.03 3.55 1.59 4.91 -0.84 7.33 C-5.77 10.55 -11 9.9 -16.69 9.19 C-19.53 8.19 -20.53 7.4 -22.69 5.19 C-22.69 3.87 -22.69 2.55 -22.69 1.19 C-15.81 2.06 -15.81 2.06 -14.69 3.19 C-12.65 3.43 -12.65 3.43 -10.31 3.44 C-9.52 3.46 -8.73 3.49 -7.91 3.52 C-4.27 2.98 -3.76 0.26 0 0 Z " fill="#AD9874" transform="translate(178.6875,149.8125)"/>
<path d="M0 0 C5.75 1.88 5.75 1.88 8 3 C10.04 3.23 12.08 3.41 14.12 3.56 C15.77 3.69 15.77 3.69 17.45 3.82 C18.29 3.88 19.13 3.94 20 4 C20.33 2.68 20.66 1.36 21 0 C22.32 0 23.64 0 25 0 C25.34 3.1 25.32 4.56 23.48 7.14 C20.1 9.67 17.12 9.59 13.06 9.5 C12.36 9.52 11.66 9.53 10.93 9.55 C7.27 9.52 5.14 9.09 2.02 7.14 C0 5 0 5 -0.31 2.25 C-0.21 1.51 -0.11 0.76 0 0 Z " fill="#AC9774" transform="translate(764,150)"/>
<path d="M0 0 C3.73 0.5 5.81 0.87 9 3 C11.97 3.46 11.97 3.46 15.19 3.62 C16.27 3.7 17.36 3.77 18.48 3.85 C19.73 3.93 19.73 3.93 21 4 C21 3.01 21 2.02 21 1 C22.65 1 24.3 1 26 1 C25.69 3.88 25.45 5.54 23.39 7.64 C20.17 9.47 17.75 9.4 14.06 9.38 C12.25 9.39 12.25 9.39 10.41 9.4 C6.76 8.97 4.9 8.21 2 6 C0 3 0 3 0 0 Z " fill="#AA9671" transform="translate(682,150)"/>
<path d="M0 0 C2.51 0.42 4.63 0.8 6.89 2.02 C9.27 3.13 10.95 3.3 13.56 3.31 C14.33 3.33 15.09 3.35 15.88 3.36 C18.51 2.91 19.16 1.85 21 0 C22.32 0 23.64 0 25 0 C25.38 2.25 25.38 2.25 25 5 C21.24 8.98 17.9 9.34 12.5 9.56 C8.43 9.44 5.46 9.28 2.19 6.75 C0 4 0 4 0 0 Z " fill="#AD9976" transform="translate(304,131)"/>
<path d="M0 0 C2.51 0.42 4.63 0.8 6.89 2.02 C9.27 3.13 10.95 3.3 13.56 3.31 C14.33 3.33 15.09 3.35 15.88 3.36 C18.51 2.91 19.16 1.85 21 0 C22.32 0 23.64 0 25 0 C25.38 2.25 25.38 2.25 25 5 C21.99 8.18 20.19 8.9 15.81 9.28 C7.08 9.36 7.08 9.36 3 8 C3 7.01 3 6.02 3 5 C2.01 5 1.02 5 0 5 C0 3.35 0 1.7 0 0 Z " fill="#AC9873" transform="translate(167,131)"/>
<path d="M0 0 C4.75 0.75 4.75 0.75 7 3 C9.1 3.36 9.1 3.36 11.44 3.31 C12.22 3.33 13 3.35 13.81 3.36 C16.49 2.92 17.19 1.95 19 0 C21.69 -0.19 21.69 -0.19 24 0 C24.31 2.25 24.31 2.25 24 5 C21.32 7.72 19.65 8.9 15.84 9.5 C14.74 9.48 13.64 9.46 12.5 9.44 C11.4 9.44 10.29 9.43 9.16 9.43 C5.68 8.96 3.76 8.15 1 6 C0.19 2.81 0.19 2.81 0 0 Z " fill="#AC9874" transform="translate(265,113)"/>
<path d="M0 0 C2.69 0.31 2.69 0.31 5 1 C4.81 3.31 4.81 3.31 4 6 C0.06 9.06 -3.09 9.43 -8 9.44 C-9.79 9.47 -9.79 9.47 -11.62 9.5 C-15.6 8.91 -17.28 7.93 -20 5 C-20 3.68 -20 2.36 -20 1 C-17.62 0.88 -17.62 0.88 -15 1 C-14.34 1.66 -13.68 2.32 -13 3 C-10.67 3.36 -10.67 3.36 -8.06 3.31 C-7.19 3.33 -6.31 3.35 -5.41 3.36 C-2.55 2.93 -1.91 2.06 0 0 Z " fill="#AB9672" transform="translate(336,92)"/>
<path d="M0 0 C3.37 0.55 5.08 1.05 8 3 C10.64 3.35 10.64 3.35 13.5 3.31 C14.94 3.34 14.94 3.34 16.41 3.36 C19.4 2.94 20.05 2.2 22 0 C24.19 0.31 24.19 0.31 26 1 C25.44 4.26 24.59 5.91 22 8 C16.49 9.84 9.21 10.43 3.81 8.02 C2.19 6.75 2.19 6.75 0 4 C0 2.68 0 1.36 0 0 Z " fill="#AC9773" transform="translate(781,168)"/>
<path d="M0 0 C0.76 0.06 1.53 0.12 2.31 0.19 C2.68 4.68 2.68 4.68 1.06 6.94 C-2.59 9.55 -6.75 9.4 -11.12 9.5 C-12.24 9.54 -13.35 9.57 -14.5 9.61 C-18.39 9.09 -20.02 8.04 -22.69 5.19 C-22.69 3.87 -22.69 2.55 -22.69 1.19 C-20.21 1.68 -20.21 1.68 -17.69 2.19 C-17.69 2.85 -17.69 3.51 -17.69 4.19 C-15.75 4.1 -13.81 3.99 -11.88 3.88 C-10.8 3.82 -9.72 3.76 -8.61 3.7 C-4.68 3.01 -3.83 0.27 0 0 Z " fill="#A8946F" transform="translate(150.6875,149.8125)"/>
<path d="M0 0 C0.35 3.15 0.33 4.55 -1.59 7.14 C-6.26 10.74 -12.38 9.65 -18 9 C-20.87 8.01 -21.83 7.23 -24 5 C-24.88 2.75 -24.88 2.75 -25 1 C-18.12 1.88 -18.12 1.88 -17 3 C-12.9 3.43 -9.21 3.78 -5.69 1.5 C-4 0 -4 0 0 0 Z " fill="#AD9875" transform="translate(206,113)"/>
<path d="M0 0 C5.75 0.75 5.75 0.75 8 3 C10.9 3.24 10.9 3.24 14.12 3.12 C15.77 3.1 15.77 3.1 17.45 3.07 C18.29 3.05 19.13 3.02 20 3 C20 2.01 20 1.02 20 0 C21.32 0 22.64 0 24 0 C23.51 5.47 23.51 5.47 21.39 7.67 C18.17 9.46 15.72 9.43 12.06 9.44 C10.86 9.46 9.65 9.48 8.41 9.5 C4.44 8.92 2.77 7.86 0 5 C-0.31 2.25 -0.31 2.25 0 0 Z " fill="#AC9975" transform="translate(796,93)"/>
<path d="M0 0 C5.75 0.75 5.75 0.75 8 3 C10.86 3.23 13.2 3.4 16 3 C17.69 1.56 17.69 1.56 19 0 C21.69 -0.19 21.69 -0.19 24 0 C23.51 5.49 23.51 5.49 21.32 7.67 C16.9 10.2 11.92 9.59 7 9 C4.17 8.01 3.19 7.19 1 5 C0.12 2.25 0.12 2.25 0 0 Z " fill="#AD9975" transform="translate(659,93)"/>
<path d="M0 0 C6.75 0.75 6.75 0.75 9 3 C11.2 3.46 11.2 3.46 13.62 3.62 C14.44 3.7 15.26 3.77 16.1 3.85 C16.73 3.9 17.35 3.95 18 4 C18.66 2.68 19.32 1.36 20 0 C21.32 0 22.64 0 24 0 C24.31 2.25 24.31 2.25 24 5 C21.77 7.84 20.01 8.86 16.43 9.35 C10.89 9.52 6.73 9.15 2 6 C1.34 5.34 0.68 4.68 0 4 C0 2.68 0 1.36 0 0 Z " fill="#AC9975" transform="translate(835,132)"/>
<path d="M0 0 C4.88 0.88 4.88 0.88 6 2 C7.6 2.13 9.21 2.18 10.81 2.19 C11.69 2.2 12.56 2.22 13.46 2.23 C16.13 1.99 17.66 1.26 20 0 C22.75 -0.12 22.75 -0.12 25 0 C24.69 2.86 24.45 4.54 22.42 6.64 C19.05 8.53 16.4 8.4 12.56 8.38 C11.26 8.38 9.97 8.39 8.63 8.4 C4.88 7.99 2.93 7.35 0 5 C-0.31 2.31 -0.31 2.31 0 0 Z " fill="#AA9671" transform="translate(767,114)"/>
<path d="M0 0 C1.32 0 2.64 0 4 0 C4.25 2.81 4.25 2.81 4 6 C1.64 8.48 0.17 8.98 -3.24 9.43 C-14.27 9.45 -14.27 9.45 -17.88 7.25 C-20 5 -20 5 -20 1 C-17.62 0.88 -17.62 0.88 -15 1 C-14.34 1.66 -13.68 2.32 -13 3 C-10.67 3.36 -10.67 3.36 -8.06 3.31 C-7.19 3.33 -6.31 3.35 -5.41 3.36 C-2.52 2.93 -1.97 2.03 0 0 Z " fill="#AD9976" transform="translate(283,92)"/>
<path d="M0 0 C2.76 0.52 5.33 1.11 8 2 C9.66 2.12 11.33 2.18 13 2.19 C13.87 2.2 14.73 2.22 15.62 2.23 C18.27 2.16 18.27 2.16 21 0 C22.32 0 23.64 0 25 0 C25.25 2.31 25.25 2.31 25 5 C22.52 7.68 20.95 8.01 17.29 8.47 C15.88 8.5 14.47 8.51 13.06 8.5 C12.01 8.54 12.01 8.54 10.93 8.59 C6.95 8.6 5.17 8.13 2 5.66 C0 3 0 3 0 0 Z " fill="#AB9874" transform="translate(250,168)"/>
<path d="M0 0 C4.66 0.63 4.66 0.63 6.39 2.52 C8.98 4.91 11.47 4.46 14.85 4.37 C17.87 3.85 19.07 2.29 21 0 C22.32 0 23.64 0 25 0 C25.25 2.81 25.25 2.81 25 6 C22.59 8.59 21.08 8.99 17.54 9.43 C16.25 9.43 14.96 9.44 13.62 9.44 C11.7 9.47 11.7 9.47 9.73 9.5 C5.46 8.93 3.28 7.76 0 5 C-0.38 2.25 -0.38 2.25 0 0 Z " fill="#AB9672" transform="translate(752,131)"/>
<path d="M0 0 C1.32 0 2.64 0 4 0 C4.35 3.13 4.32 4.56 2.45 7.14 C-0.92 9.7 -3.25 9.5 -7.44 9.44 C-8.74 9.44 -10.03 9.43 -11.37 9.43 C-15.1 8.99 -17.08 8.34 -20 6 C-20.31 3.31 -20.31 3.31 -20 1 C-17.24 1.52 -14.67 2.11 -12 3 C-9.82 3.23 -9.82 3.23 -7.5 3.25 C-6.73 3.28 -5.95 3.3 -5.16 3.33 C-2.47 2.92 -1.86 1.88 0 0 Z " fill="#AE9976" transform="translate(745,131)"/>
<path d="M0 0 C-0.33 2.93 -0.81 4.73 -2.55 7.14 C-5.92 9.7 -8.94 9.55 -13 9.44 C-13.71 9.44 -14.42 9.45 -15.16 9.46 C-18.35 9.42 -20.66 9.19 -23.48 7.64 C-25 6 -25 6 -25.25 3.31 C-25.17 2.55 -25.09 1.79 -25 1 C-19.25 1.75 -19.25 1.75 -17 4 C-9.78 4.83 -6.64 0 0 0 Z " fill="#AD9A77" transform="translate(232,92)"/>
<path d="M0 0 C0.31 2.25 0.31 2.25 0 5 C-2.75 7.83 -4.44 8.91 -8.38 9.53 C-9.57 9.52 -10.77 9.51 -12 9.5 C-13.2 9.51 -14.39 9.52 -15.62 9.53 C-19.58 8.91 -21.29 7.92 -24 5 C-24 3.68 -24 2.36 -24 1 C-18.12 1.88 -18.12 1.88 -17 3 C-12.9 3.43 -9.21 3.78 -5.69 1.5 C-4 0 -4 0 0 0 Z " fill="#B2A07E" transform="translate(872,114)"/>
<path d="M0 0 C2.97 0.42 4.89 0.93 7.44 2.56 C10.59 4.33 12.43 4.46 16 4 C17.35 3.02 18.68 2.02 20 1 C22.75 0.81 22.75 0.81 25 1 C24.66 3.51 24.33 5.49 22.95 7.64 C19.9 9.77 16.71 9.51 13.12 9.5 C12.42 9.53 11.71 9.56 10.98 9.59 C7.02 9.6 5.17 9.13 1.99 6.72 C0 4 0 4 0 0 Z " fill="#AA9571" transform="translate(792,150)"/>
<path d="M0 0 C2.25 0.31 2.25 0.31 4 1 C3.68 3.97 3.02 4.98 0.85 7.11 C-4.07 10.37 -9.31 9.71 -15 9 C-17.85 8 -18.84 7.22 -21 5 C-21 3.68 -21 2.36 -21 1 C-18.62 0.88 -18.62 0.88 -16 1 C-15.34 1.66 -14.68 2.32 -14 3 C-11.7 3.36 -11.7 3.36 -9.12 3.31 C-7.83 3.34 -7.83 3.34 -6.51 3.36 C-3.56 2.94 -2.29 1.84 0 0 Z " fill="#AE9B79" transform="translate(883,132)"/>
<path d="M0 0 C2.86 0.4 4.62 0.69 6.88 2.56 C10 4.68 12.32 4.39 16 4 C17.36 3.04 18.7 2.04 20 1 C22.75 0.81 22.75 0.81 25 1 C24.69 3.86 24.45 5.54 22.42 7.64 C19.06 9.53 16.4 9.43 12.56 9.44 C10.62 9.47 10.62 9.47 8.63 9.5 C4.51 8.93 2.85 7.98 0 5 C-0.31 2.25 -0.31 2.25 0 0 Z " fill="#AA9571" transform="translate(139,131)"/>
<path d="M0 0 C2.47 0.5 2.47 0.5 5 1 C5.33 1.99 5.66 2.98 6 4 C11.55 3.65 15.24 3.04 20 0 C22.81 -0.19 22.81 -0.19 25 0 C25.37 4.52 25.37 4.52 23.76 6.64 C21.57 8.33 20.4 8.39 17.66 8.4 C16.82 8.4 15.99 8.41 15.13 8.41 C13.83 8.39 13.83 8.39 12.5 8.38 C11.63 8.39 10.76 8.4 9.87 8.41 C9.04 8.41 8.2 8.4 7.34 8.4 C6.2 8.39 6.2 8.39 5.04 8.39 C2.46 7.9 1.56 7.07 0 5 C-0.19 2.31 -0.19 2.31 0 0 Z " fill="#AE9A76" transform="translate(196,131)"/>
<path d="M0 0 C0 1.65 0 3.3 0 5 C-5.12 8.64 -9.03 9.69 -15.33 9.46 C-19.67 8.71 -21.83 7.03 -25 4 C-25 3.01 -25 2.02 -25 1 C-19.38 0.75 -19.38 0.75 -16 3 C-10.54 3.58 -10.54 3.58 -5.75 1.5 C-4 0 -4 0 0 0 Z " fill="#B09F7D" transform="translate(125,114)"/>
<path d="M0 0 C3.73 0.5 5.81 0.87 9 3 C11.75 3.24 11.75 3.24 14.69 3.12 C15.68 3.11 16.68 3.09 17.7 3.07 C18.46 3.05 19.22 3.02 20 3 C20 2.01 20 1.02 20 0 C21.32 0 22.64 0 24 0 C24.31 2.25 24.31 2.25 24 5 C22.25 7.31 22.25 7.31 19 9 C13.7 9.73 8.06 10.14 3.31 7.31 C0.8 4.8 0.19 3.51 0 0 Z " fill="#AD9976" transform="translate(821,114)"/>
<path d="M0 0 C11.22 0 22.44 0 34 0 C34 1.32 34 2.64 34 4 C22.78 4 11.56 4 0 4 C0 2.68 0 1.36 0 0 Z " fill="#BDAD92" transform="translate(400,204)"/>
<path d="M0 0 C0.76 0.06 1.53 0.12 2.31 0.19 C1.98 3.19 1.52 4.92 -0.33 7.33 C-3.41 9.76 -5.24 9.69 -9.12 9.62 C-10.24 9.62 -11.35 9.62 -12.5 9.62 C-16.94 9.02 -19.55 7.32 -22.69 4.19 C-22.69 3.2 -22.69 2.21 -22.69 1.19 C-20.31 1.06 -20.31 1.06 -17.69 1.19 C-17.03 1.85 -16.37 2.51 -15.69 3.19 C-13.35 3.54 -13.35 3.54 -10.75 3.5 C-9.87 3.52 -9 3.53 -8.1 3.55 C-4.36 2.99 -3.78 0.26 0 0 Z " fill="#A99571" transform="translate(758.6875,149.8125)"/>
<path d="M0 0 C4.88 1.88 4.88 1.88 6 3 C7.95 3.15 9.92 3.22 11.88 3.25 C12.94 3.28 14.01 3.3 15.12 3.33 C18.38 2.96 18.92 2.37 21 0 C21.99 0 22.98 0 24 0 C24.35 3.13 24.32 4.56 22.45 7.14 C19.08 9.7 16.75 9.5 12.56 9.44 C11.26 9.44 9.97 9.43 8.63 9.43 C4.89 8.99 2.9 8.37 0 6 C-0.31 2.81 -0.31 2.81 0 0 Z " fill="#B3A181" transform="translate(59,132)"/>
<path d="M0 0 C1.32 0 2.64 0 4 0 C4.34 3.08 4.31 4.56 2.52 7.14 C-1.1 9.81 -4.11 9.59 -8.5 9.5 C-9.26 9.52 -10.02 9.53 -10.8 9.55 C-14.51 9.52 -16.44 9.39 -19.53 7.22 C-21 5 -21 5 -21 1 C-19.35 1 -17.7 1 -16 1 C-15.67 1.99 -15.34 2.98 -15 4 C-7.8 4.78 -7.8 4.78 -1.56 2 C-1.05 1.34 -0.53 0.68 0 0 Z " fill="#A99670" transform="translate(393,92)"/>
<path d="M0 0 C1.32 0 2.64 0 4 0 C4.31 2.81 4.31 2.81 4 6 C0.24 8.98 -2.77 9.41 -7.5 9.38 C-8.6 9.38 -9.71 9.39 -10.84 9.4 C-14.33 8.96 -16.23 8.13 -19 6 C-19.81 3.31 -19.81 3.31 -20 1 C-18.35 1 -16.7 1 -15 1 C-14.67 1.99 -14.34 2.98 -14 4 C-12.23 3.91 -10.46 3.8 -8.69 3.69 C-7.7 3.63 -6.72 3.57 -5.7 3.51 C-2.65 2.93 -2.07 2.16 0 0 Z " fill="#AA9671" transform="translate(310,92)"/>
<path d="M0 0 C4.6 0.77 4.6 0.77 6.81 2.06 C10.16 3.5 13.42 3.51 17 3 C19.17 1.56 19.17 1.56 21 0 C23.75 -0.19 23.75 -0.19 26 0 C25.66 2.49 25.32 4.49 23.98 6.64 C20.8 8.83 17.35 8.47 13.62 8.44 C12.87 8.46 12.11 8.48 11.34 8.5 C7.45 8.49 5.39 8.23 1.96 6.22 C0 4 0 4 0 0 Z " fill="#AC9773" transform="translate(279,168)"/>
<path d="M0 0 C5.88 0.88 5.88 0.88 7 2 C8.98 2.13 10.96 2.18 12.94 2.19 C14.02 2.2 15.1 2.22 16.21 2.23 C19.14 2.29 19.14 2.29 21 0 C22.32 0 23.64 0 25 0 C25.31 2.31 25.31 2.31 25 5 C19.37 9.43 12.8 8.72 6 8 C3.1 7.02 2.15 6.28 0 4 C0 2.68 0 1.36 0 0 Z " fill="#AE9B79" transform="translate(195,168)"/>
<path d="M0 0 C0.76 0.06 1.53 0.12 2.31 0.19 C2.03 3.52 1.58 4.91 -0.8 7.33 C-4.37 9.63 -6.54 9.69 -10.75 9.62 C-11.96 9.62 -13.17 9.62 -14.41 9.62 C-17.84 9.17 -19.31 8.66 -21.69 6.19 C-21.94 3.5 -21.94 3.5 -21.69 1.19 C-19.21 1.68 -19.21 1.68 -16.69 2.19 C-16.69 2.85 -16.69 3.51 -16.69 4.19 C-14.92 4.1 -13.15 3.99 -11.38 3.88 C-10.39 3.82 -9.4 3.76 -8.39 3.7 C-4.58 2.98 -3.8 0.26 0 0 Z " fill="#A9946F" transform="translate(124.6875,149.8125)"/>
<path d="M0 0 C2.55 0.42 4.66 0.81 6.94 2.06 C10.87 3.85 14.97 3.24 19 2 C19 1.34 19 0.68 19 0 C20.65 0 22.3 0 24 0 C23.73 3.2 23.17 4.79 21.12 7.31 C16.46 9.83 12.19 9.75 7 9 C3.38 7.31 3.38 7.31 1 5 C0.12 2.25 0.12 2.25 0 0 Z " fill="#A89470" transform="translate(128,114)"/>
<path d="M0 0 C5.88 0.88 5.88 0.88 7 2 C8.64 2.12 10.29 2.18 11.94 2.19 C12.83 2.2 13.73 2.22 14.65 2.23 C17.19 2.23 17.19 2.23 19 0 C21.62 -0.12 21.62 -0.12 24 0 C23.69 2.88 23.45 4.54 21.39 6.64 C18.17 8.47 15.75 8.4 12.06 8.38 C10.25 8.39 10.25 8.39 8.41 8.4 C4.78 7.97 2.85 7.25 0 5 C-0.31 2.31 -0.31 2.31 0 0 Z " fill="#A7936E" transform="translate(823,94)"/>
<path d="M0 0 C2.85 0.4 4.6 0.66 6.81 2.56 C10.08 4.71 13.2 4.61 17 4 C19.17 2.56 19.17 2.56 21 1 C23.75 0.81 23.75 0.81 26 1 C25.69 3.86 25.45 5.54 23.42 7.64 C20.06 9.53 17.4 9.43 13.56 9.44 C11.62 9.47 11.62 9.47 9.63 9.5 C5.5 8.93 3.87 7.96 1 5 C0.19 2.25 0.19 2.25 0 0 Z " fill="#AE9A77" transform="translate(780,131)"/>
<path d="M0 0 C2.97 0.42 4.89 0.93 7.44 2.56 C10.59 4.33 12.43 4.46 16 4 C17.35 3.02 18.68 2.02 20 1 C22.75 0.81 22.75 0.81 25 1 C24.69 3.89 24.46 5.54 22.38 7.64 C17.47 10.45 11.46 9.68 6 9 C2.96 7.67 2.09 6.7 0 4 C0 2.68 0 1.36 0 0 Z " fill="#AA9772" transform="translate(671,131)"/>
<path d="M0 0 C1.32 0 2.64 0 4 0 C4.34 3.1 4.31 4.56 2.48 7.14 C-0.92 9.68 -3.93 9.55 -8 9.44 C-8.71 9.44 -9.42 9.45 -10.16 9.46 C-13.35 9.42 -15.66 9.19 -18.48 7.64 C-20 6 -20 6 -20.25 3.31 C-20.17 2.55 -20.09 1.79 -20 1 C-14.25 1.75 -14.25 1.75 -12 4 C-9.07 4.28 -6.85 4.49 -4 4 C-1.75 2.08 -1.75 2.08 0 0 Z " fill="#AE9A77" transform="translate(271,130)"/>
<path d="M0 0 C4.75 0.88 4.75 0.88 7 2 C8.66 2.12 10.33 2.18 12 2.19 C13.33 2.21 13.33 2.21 14.69 2.23 C17.2 2.23 17.2 2.23 19 0 C22.12 -0.12 22.12 -0.12 25 0 C24.69 2.91 24.46 4.54 22.35 6.64 C17.71 9.33 12.18 8.6 7 8 C4.21 6.95 2.42 5.8 0 4 C0 2.68 0 1.36 0 0 Z " fill="#A7936E" transform="translate(710,114)"/>
<path d="M0 0 C4.75 0.75 4.75 0.75 7 3 C9.07 3.28 9.07 3.28 11.38 3.19 C12.53 3.18 12.53 3.18 13.71 3.17 C15.92 3.01 17.88 2.61 20 2 C20 1.34 20 0.68 20 0 C21.32 0 22.64 0 24 0 C23.74 3.16 23.16 4.8 21.19 7.31 C16.34 9.88 11.38 9.79 6 9 C3.76 7.83 1.79 6.79 0 5 C-0.04 3.33 -0.04 1.67 0 0 Z " fill="#AB9874" transform="translate(153,93)"/>
<path d="M0 0 C6.62 0.75 6.62 0.75 10 3 C14.31 3.47 14.31 3.47 18 1.5 C20.71 -0.53 22.7 -0.23 26 0 C24.72 3.95 23.6 5.89 20 8 C12.39 9.1 6.2 8.61 0 4 C0 2.68 0 1.36 0 0 Z " fill="#AC9774" transform="translate(838,169)"/>
<path d="M0 0 C2.48 0.5 2.48 0.5 5 1 C5.33 1.99 5.66 2.98 6 4 C7.58 4.08 9.17 4.14 10.75 4.19 C11.63 4.22 12.51 4.26 13.42 4.29 C16.47 3.95 17.66 2.91 20 1 C22.75 0.81 22.75 0.81 25 1 C24.69 3.89 24.45 5.54 22.38 7.64 C17.48 10.44 11.45 9.57 6 9 C3.02 8.04 2.17 7.36 0 5 C-0.38 2.25 -0.38 2.25 0 0 Z " fill="#AF9D7A" transform="translate(901,151)"/>
<path d="M0 0 C1.65 0 3.3 0 5 0 C5.33 0.99 5.66 1.98 6 3 C10.62 3 15.24 3 20 3 C20.33 2.01 20.66 1.02 21 0 C22.32 0 23.64 0 25 0 C25.25 2.31 25.25 2.31 25 5 C22.58 7.55 21.06 7.99 17.54 8.47 C5.67 8.56 5.67 8.56 2.06 5.69 C0 3 0 3 0 0 Z " fill="#AF9E7A" transform="translate(889,133)"/>
<path d="M0 0 C-0.28 3.36 -0.72 4.73 -3.15 7.14 C-8.08 10.36 -13.31 9.71 -19 9 C-21.85 8 -22.84 7.22 -25 5 C-25 3.68 -25 2.36 -25 1 C-18.25 1.75 -18.25 1.75 -16 4 C-11.8 4.48 -9.76 4.57 -6.31 2 C-4 0 -4 0 0 0 Z " fill="#AE9A77" transform="translate(356,131)"/>
<path d="M0 0 C6.75 0.75 6.75 0.75 9 3 C11.86 3.23 14.2 3.4 17 3 C18.69 1.56 18.69 1.56 20 0 C22.69 -0.19 22.69 -0.19 25 0 C24.66 2.51 24.32 4.49 22.95 6.64 C19.9 8.77 16.7 8.47 13.12 8.44 C12.42 8.46 11.71 8.48 10.98 8.5 C7.34 8.49 5.14 8.08 1.99 6.22 C0 4 0 4 0 0 Z " fill="#AA9672" transform="translate(632,93)"/>
<path d="M0 0 C4.75 0.75 4.75 0.75 7 3 C12.65 3.46 15.21 3.11 20 0 C22.81 -0.19 22.81 -0.19 25 0 C24.69 2.84 24.44 4.53 22.45 6.64 C19.02 8.54 15.81 8.44 12 8.38 C10.93 8.39 10.93 8.39 9.84 8.41 C6.64 8.39 4.35 8.19 1.52 6.64 C0 5 0 5 -0.25 2.31 C-0.17 1.55 -0.09 0.79 0 0 Z " fill="#AC9875" transform="translate(179,93)"/>
<path d="M0 0 C5.75 0.75 5.75 0.75 8 3 C12.03 3.6 15.81 3.8 19.25 1.5 C19.83 1 20.4 0.51 21 0 C23.75 -0.19 23.75 -0.19 26 0 C25.81 2.31 25.81 2.31 25 5 C20.95 8.19 17.57 8.43 12.5 8.44 C11.21 8.46 9.92 8.48 8.59 8.5 C4.48 7.93 2.79 7.05 0 4 C0 2.68 0 1.36 0 0 Z " fill="#AB9774" transform="translate(895,169)"/>
<path d="M0 0 C5.75 0.75 5.75 0.75 8 3 C10.33 3.36 10.33 3.36 12.94 3.31 C13.81 3.33 14.69 3.35 15.59 3.36 C18.48 2.93 19.03 2.03 21 0 C22.32 0 23.64 0 25 0 C25.25 2.31 25.25 2.31 25 5 C22.45 7.82 20.86 8.01 17.03 8.4 C15.52 8.41 14.01 8.4 12.5 8.38 C11.74 8.39 10.98 8.4 10.2 8.41 C6.88 8.39 4.43 8.23 1.48 6.64 C0 5 0 5 -0.25 2.31 C-0.17 1.55 -0.08 0.79 0 0 Z " fill="#AD9874" transform="translate(309,168)"/>
<path d="M0 0 C3.37 0.55 5.08 1.05 8 3 C12.05 3.57 15.79 3.81 19.25 1.5 C19.83 1 20.41 0.51 21 0 C23.75 -0.19 23.75 -0.19 26 0 C25.66 2.49 25.32 4.49 23.98 6.64 C20.8 8.83 17.36 8.51 13.62 8.5 C12.87 8.53 12.11 8.56 11.34 8.59 C7.08 8.6 5.44 8.34 1.96 5.66 C0 3 0 3 0 0 Z " fill="#AA9671" transform="translate(166,168)"/>
<path d="M0 0 C3.37 0.55 5.08 1.05 8 3 C10.18 3.35 10.18 3.35 12.5 3.31 C13.66 3.34 13.66 3.34 14.84 3.36 C17.5 2.92 18.21 1.93 20 0 C22.69 -0.19 22.69 -0.19 25 0 C24.5 3.71 23.96 5.66 21 8 C19.05 8.39 19.05 8.39 16.88 8.4 C16.09 8.4 15.3 8.41 14.48 8.41 C13.66 8.4 12.84 8.39 12 8.38 C10.77 8.39 10.77 8.39 9.52 8.41 C8.33 8.4 8.33 8.4 7.12 8.4 C6.41 8.4 5.69 8.39 4.95 8.39 C2.44 7.89 1.54 7.01 0 5 C-0.19 2.31 -0.19 2.31 0 0 Z " fill="#A9946F" transform="translate(265,150)"/>
<path d="M0 0 C-0.31 2.84 -0.56 4.53 -2.55 6.64 C-5.98 8.54 -9.19 8.44 -13 8.38 C-14.07 8.39 -14.07 8.39 -15.16 8.41 C-18.31 8.39 -20.67 8.17 -23.5 6.73 C-25 5 -25 5 -25 1 C-18.12 1.88 -18.12 1.88 -17 3 C-10.3 3.52 -6.35 -0.54 0 0 Z " fill="#AA9673" transform="translate(302,131)"/>
<path d="M0 0 C1.32 0 2.64 0 4 0 C4 0.99 4 1.98 4 3 C8.95 2.67 13.9 2.34 19 2 C19 1.34 19 0.68 19 0 C20.65 0 22.3 0 24 0 C23.66 2.52 23.33 4.5 21.92 6.64 C18.93 8.76 16.23 8.4 12.62 8.38 C11.32 8.38 10.01 8.39 8.66 8.4 C4.89 7.99 2.94 7.37 0 5 C-0.31 2.31 -0.31 2.31 0 0 Z " fill="#AD9977" transform="translate(348,114)"/>
<path d="M0 0 C-0.33 2.98 -0.79 4.73 -2.62 7.14 C-7.26 10.76 -13.41 9.65 -19 9 C-21.91 8.01 -22.84 7.28 -25 5 C-25 3.68 -25 2.36 -25 1 C-19.25 1.75 -19.25 1.75 -17 4 C-9.78 4.83 -6.64 0 0 0 Z " fill="#A99571" transform="translate(369,92)"/>
<path d="M0 0 C2.48 0.5 2.48 0.5 5 1 C5 1.99 5 2.98 5 4 C7.4 3.69 9.79 3.38 12.19 3.06 C12.86 2.98 13.53 2.89 14.23 2.8 C17.85 2.32 21.43 1.77 25 1 C24.81 3.31 24.81 3.31 24 6 C18.7 9.99 13.38 9.8 7 9 C4.26 7.94 2.4 6.75 0 5 C0 3.35 0 1.7 0 0 Z " fill="#A9956F" transform="translate(811,168)"/>
<path d="M0 0 C4.75 0.88 4.75 0.88 7 2 C8.83 2.12 10.67 2.18 12.5 2.19 C13.97 2.21 13.97 2.21 15.47 2.23 C18.17 2.26 18.17 2.26 20 0 C21.32 0 22.64 0 24 0 C23.69 2.86 23.44 4.54 21.42 6.64 C18.04 8.54 15.35 8.4 11.5 8.38 C10.19 8.38 8.88 8.39 7.53 8.4 C3.94 7.99 2.45 7.61 0 5 C-0.25 2.31 -0.25 2.31 0 0 Z " fill="#AF9B78" transform="translate(224,168)"/>
<path d="M0 0 C3.37 0.55 5.08 1.05 8 3 C10.41 3.35 10.41 3.35 13 3.31 C14.3 3.34 14.3 3.34 15.62 3.36 C18.46 2.93 19.12 2.07 21 0 C23.69 -0.19 23.69 -0.19 26 0 C25.66 2.49 25.32 4.49 23.98 6.64 C20.8 8.83 17.35 8.47 13.62 8.44 C12.87 8.46 12.11 8.48 11.34 8.5 C7.45 8.49 5.39 8.23 1.96 6.22 C0 4 0 4 0 0 Z " fill="#AC9773" transform="translate(136,168)"/>
<path d="M0 0 C2.31 -0.19 2.31 -0.19 5 0 C5.43 0.5 5.87 0.99 6.31 1.5 C8.71 3.63 10.98 3.41 14.08 3.3 C16.65 2.9 18.02 1.64 20 0 C22.75 -0.19 22.75 -0.19 25 0 C24.66 2.51 24.32 4.49 22.95 6.64 C19.9 8.77 16.7 8.47 13.12 8.44 C12.42 8.46 11.71 8.48 10.98 8.5 C7.34 8.49 5.14 8.08 1.99 6.22 C0 4 0 4 0 0 Z " fill="#A8946F" transform="translate(212,150)"/>
<path d="M0 0 C6.62 0.75 6.62 0.75 10 3 C14.66 3.5 16.4 2.79 20 0 C22.75 -0.19 22.75 -0.19 25 0 C24.66 2.52 24.33 4.5 22.92 6.64 C19.93 8.76 17.24 8.43 13.62 8.44 C12.32 8.46 11.01 8.48 9.66 8.5 C5.52 7.94 3.9 6.95 1 4 C0.19 1.75 0.19 1.75 0 0 Z " fill="#A7936D" transform="translate(629,114)"/>
<path d="M0 0 C0.35 3.15 0.33 4.55 -1.59 7.14 C-6.26 10.74 -12.38 9.65 -18 9 C-20.91 8.01 -21.84 7.28 -24 5 C-24 3.68 -24 2.36 -24 1 C-20.27 1.5 -18.19 1.87 -15 4 C-8.52 4.86 -5.86 0 0 0 Z " fill="#AD9A77" transform="translate(150,93)"/>
<path d="M0 0 C4.88 0.88 4.88 0.88 6 2 C7.81 2.12 9.62 2.18 11.44 2.19 C12.92 2.21 12.92 2.21 14.43 2.23 C17.17 2.26 17.17 2.26 19 0 C21.62 -0.12 21.62 -0.12 24 0 C23.66 2.54 23.34 4.5 21.88 6.64 C19.04 8.69 16.65 8.4 13.19 8.38 C11.38 8.39 11.38 8.39 9.54 8.4 C5.75 7.97 3.28 6.9 0 5 C0 3.35 0 1.7 0 0 Z " fill="#A99671" transform="translate(658,114)"/>
<path d="M0 0 C3.73 0.5 5.81 0.87 9 3 C11.75 3.24 11.75 3.24 14.69 3.12 C15.68 3.11 16.68 3.09 17.7 3.07 C18.46 3.05 19.22 3.02 20 3 C20 2.01 20 1.02 20 0 C21.65 0 23.3 0 25 0 C24.66 2.49 24.32 4.49 22.98 6.64 C19.78 8.83 16.31 8.47 12.56 8.44 C11.42 8.47 11.42 8.47 10.25 8.5 C6.52 8.49 4.58 8.41 1.46 6.22 C0 4 0 4 0 0 Z " fill="#A8956F" transform="translate(601,114)"/>
<path d="M0 0 C4.75 0.75 4.75 0.75 7 3 C9.33 3.36 9.33 3.36 11.94 3.31 C12.81 3.33 13.69 3.35 14.59 3.36 C17.48 2.93 18.03 2.03 20 0 C21.32 0 22.64 0 24 0 C24.12 2.88 24.12 2.88 24 6 C21.24 8.76 19.38 8.29 15.62 8.32 C14.8 8.32 13.97 8.32 13.12 8.31 C12.31 8.33 11.49 8.34 10.65 8.36 C7.07 8.36 4.65 8.34 1.45 6.65 C0 5 0 5 -0.25 2.31 C-0.17 1.55 -0.09 0.79 0 0 Z " fill="#A99571" transform="translate(713,93)"/>
<path d="M0 0 C2.75 0.25 2.75 0.25 5 1 C4.45 4.85 3.06 6.64 0 9 C-2.83 9.37 -5.19 9.52 -8 9.44 C-8.71 9.44 -9.42 9.45 -10.16 9.46 C-13.35 9.42 -15.66 9.19 -18.48 7.64 C-20 6 -20 6 -20.25 3.31 C-20.17 2.55 -20.09 1.79 -20 1 C-17.53 1.5 -17.53 1.5 -15 2 C-15 2.99 -15 3.98 -15 5 C-7.74 5.06 -7.74 5.06 -1.62 1.88 C-1.09 1.26 -0.55 0.64 0 0 Z " fill="#AA9671" transform="translate(256,92)"/>
<path d="M0 0 C3.73 0.5 5.81 0.87 9 3 C14.46 3.58 14.46 3.58 19.25 1.5 C19.83 1 20.41 0.51 21 0 C22.32 0 23.64 0 25 0 C25.25 2.31 25.25 2.31 25 5 C22.57 7.56 21.08 7.99 17.54 8.43 C16.25 8.43 14.96 8.44 13.62 8.44 C11.7 8.47 11.7 8.47 9.73 8.5 C5.43 7.92 3.24 6.85 0 4 C0 2.68 0 1.36 0 0 Z " fill="#A99470" transform="translate(52,169)"/>
<path d="M0 0 C3.73 0.5 5.81 0.87 9 3 C11.7 3.42 14.3 3.39 17 3 C18.69 1.56 18.69 1.56 20 0 C22.69 -0.19 22.69 -0.19 25 0 C24.66 2.52 24.33 4.5 22.92 6.64 C19.93 8.76 17.23 8.4 13.62 8.38 C12.32 8.38 11.01 8.39 9.66 8.4 C5.88 7.99 3.96 7.35 1 5 C0.19 2.31 0.19 2.31 0 0 Z " fill="#AA9571" transform="translate(820,151)"/>
<path d="M0 0 C3.37 0.55 5.08 1.05 8 3 C10.7 3.42 13.3 3.39 16 3 C17.69 1.56 17.69 1.56 19 0 C21.69 -0.19 21.69 -0.19 24 0 C24.25 2.31 24.25 2.31 24 5 C21.56 7.59 20.08 7.99 16.5 8.4 C15.2 8.39 13.9 8.38 12.56 8.38 C11.26 8.38 9.97 8.39 8.63 8.4 C4.88 7.99 2.93 7.35 0 5 C-0.31 2.31 -0.31 2.31 0 0 Z " fill="#A8936E" transform="translate(224,131)"/>
<path d="M0 0 C5.88 1.88 5.88 1.88 7 3 C8.64 3.12 10.29 3.18 11.94 3.19 C12.83 3.2 13.73 3.22 14.65 3.23 C17.19 3.23 17.19 3.23 19 1 C20.32 1 21.64 1 23 1 C23.25 3.31 23.25 3.31 23 6 C20.69 8.34 19.25 8.96 15.98 9.43 C5.8 9.45 5.8 9.45 2.19 7.31 C0 5 0 5 -0.38 2.25 C-0.25 1.51 -0.13 0.77 0 0 Z " fill="#AC9874" transform="translate(684,113)"/>
<path d="M0 0 C5.75 0.75 5.75 0.75 8 3 C10.86 3.23 13.2 3.4 16 3 C17.69 1.56 17.69 1.56 19 0 C21.69 -0.19 21.69 -0.19 24 0 C24.25 2.31 24.25 2.31 24 5 C21.56 7.58 20.06 7.99 16.5 8.43 C15.2 8.43 13.9 8.44 12.56 8.44 C10.62 8.47 10.62 8.47 8.63 8.5 C4.49 7.93 2.8 7.07 0 4 C0 2.68 0 1.36 0 0 Z " fill="#A7936E" transform="translate(847,151)"/>
<path d="M0 0 C1.65 0 3.3 0 5 0 C5.66 1.32 6.32 2.64 7 4 C11.62 3.67 16.24 3.34 21 3 C21 2.01 21 1.02 21 0 C22.32 0 23.64 0 25 0 C25.37 4.52 25.37 4.52 23.74 6.64 C20.59 9.1 16.92 8.47 13.06 8.44 C12.25 8.46 11.44 8.48 10.6 8.5 C6.77 8.49 4.65 8.45 1.43 6.22 C0 4 0 4 0 0 Z " fill="#A8946F" transform="translate(184,150)"/>
<path d="M0 0 C2.89 0.41 4.8 0.87 7.25 2.5 C11.06 4.58 14.73 4.73 19 5 C19.33 3.35 19.66 1.7 20 0 C21.32 0 22.64 0 24 0 C24.35 3.17 24.34 4.55 22.38 7.14 C18.53 10.15 14.93 9.53 10.22 9.41 C5.88 8.86 3.48 7.59 0 5 C0 3.35 0 1.7 0 0 Z " fill="#AA9673" transform="translate(698,131)"/>
<path d="M0 0 C2.48 0.99 2.48 0.99 5 2 C5 2.99 5 3.98 5 5 C6.75 4.72 8.5 4.42 10.25 4.12 C11.22 3.96 12.2 3.8 13.2 3.63 C15.96 3.13 15.96 3.13 18.11 1.93 C20 1 20 1 24 1 C24 2.98 24 4.96 24 7 C20.28 9.37 16.9 9.33 12.56 9.38 C11.26 9.4 9.97 9.43 8.63 9.46 C4.49 8.94 2.85 7.99 0 5 C-0.31 2.25 -0.31 2.25 0 0 Z " fill="#AC9874" transform="translate(738,113)"/>
<path d="M0 0 C2.47 0.5 2.47 0.5 5 1 C5 1.99 5 2.98 5 4 C10.23 3.05 15.07 2.03 20 0 C21.32 0 22.64 0 24 0 C24.31 2.31 24.31 2.31 24 5 C20.08 8.1 16.91 8.41 12 8.38 C10.8 8.38 9.61 8.39 8.38 8.4 C4.77 7.97 2.84 7.24 0 5 C-0.31 2.31 -0.31 2.31 0 0 Z " fill="#AD9A77" transform="translate(154,114)"/>
<path d="M0 0 C3.37 0.55 5.08 1.05 8 3 C9.95 3.31 9.95 3.31 12 3.25 C12.68 3.26 13.36 3.26 14.06 3.27 C16.32 3.1 16.32 3.1 19 1 C22.19 0.88 22.19 0.88 25 1 C23.93 3.92 23.22 5.78 21 8 C18.16 8.23 15.46 8.32 12.62 8.31 C11.86 8.33 11.09 8.34 10.3 8.36 C6.83 8.36 4.57 8.31 1.48 6.65 C0 5 0 5 -0.25 2.31 C-0.17 1.55 -0.09 0.79 0 0 Z " fill="#AA9571" transform="translate(238,113)"/>
<path d="M0 0 C2.47 0.5 2.47 0.5 5 1 C5 1.99 5 2.98 5 4 C6.61 3.91 8.21 3.8 9.81 3.69 C10.71 3.63 11.6 3.57 12.52 3.51 C15.37 2.92 16.07 2.07 18 0 C21.19 -0.19 21.19 -0.19 24 0 C23.5 3.71 22.95 5.64 20 8 C17.08 8.3 14.42 8.42 11.5 8.38 C10.34 8.39 10.34 8.39 9.16 8.41 C3.49 8.38 3.49 8.38 1.27 6.64 C-0.47 4.4 -0.22 2.76 0 0 Z " fill="#AA9571" transform="translate(240,150)"/>
<path d="M0 0 C2.81 -0.19 2.81 -0.19 6 0 C6.45 0.5 6.91 0.99 7.38 1.5 C9.78 3.72 11.97 3.41 15.14 3.3 C17.58 2.9 18.41 1.82 20 0 C22.69 -0.19 22.69 -0.19 25 0 C24.66 2.54 24.34 4.5 22.88 6.64 C18.59 9.74 12.03 8.52 7 8 C4.13 7.01 3.17 6.23 1 4 C0.12 1.75 0.12 1.75 0 0 Z " fill="#A7936E" transform="translate(643,132)"/>
<path d="M0 0 C1.11 0.09 1.11 0.09 2.25 0.19 C1.91 2.68 1.56 4.68 0.23 6.83 C-2.97 9.02 -6.45 8.62 -10.19 8.56 C-10.95 8.57 -11.72 8.59 -12.5 8.6 C-15.9 8.58 -18.21 8.46 -21.29 6.91 C-22.75 5.19 -22.75 5.19 -22.75 1.19 C-20.38 1.06 -20.38 1.06 -17.75 1.19 C-17.09 1.85 -16.43 2.51 -15.75 3.19 C-11.72 3.79 -7.94 3.98 -4.5 1.69 C-2.75 0.19 -2.75 0.19 0 0 Z " fill="#A7946D" transform="translate(313.75,112.8125)"/>
<path d="M0 0 C3.37 0.55 5.08 1.05 8 3 C10.18 3.35 10.18 3.35 12.5 3.31 C13.66 3.34 13.66 3.34 14.84 3.36 C17.51 2.91 18.14 1.87 20 0 C21.32 0 22.64 0 24 0 C24.36 4.42 24.36 4.42 22.98 6.64 C19.91 8.75 16.71 8.43 13.12 8.38 C12.42 8.39 11.71 8.4 10.98 8.41 C6.51 8.39 3.49 7.86 0 5 C-0.31 2.31 -0.31 2.31 0 0 Z " fill="#AA9571" transform="translate(725,168)"/>
<path d="M0 0 C5.75 0.75 5.75 0.75 8 3 C10.1 3.36 10.1 3.36 12.44 3.31 C13.22 3.33 14 3.35 14.81 3.36 C17.51 2.92 18.12 1.9 20 0 C21.32 0 22.64 0 24 0 C24.36 4.42 24.36 4.42 22.98 6.64 C19.91 8.75 16.72 8.47 13.12 8.44 C12.42 8.46 11.71 8.48 10.98 8.5 C7.34 8.49 5.14 8.08 1.99 6.22 C0 4 0 4 0 0 Z " fill="#AA9672" transform="translate(809,132)"/>
<path d="M0 0 C4.75 0.75 4.75 0.75 7 3 C9.33 3.36 9.33 3.36 11.94 3.31 C12.81 3.33 13.69 3.35 14.59 3.36 C17.48 2.93 18.03 2.03 20 0 C21.32 0 22.64 0 24 0 C24.36 4.4 24.36 4.4 23.02 6.64 C19.79 8.82 16.32 8.43 12.56 8.38 C11.8 8.39 11.03 8.4 10.25 8.41 C6.8 8.39 4.56 8.3 1.48 6.64 C0 5 0 5 -0.25 2.31 C-0.17 1.55 -0.09 0.79 0 0 Z " fill="#AC9773" transform="translate(576,93)"/>
<path d="M0 0 C1.65 0 3.3 0 5 0 C5.33 0.99 5.66 1.98 6 3 C7.58 3.08 9.17 3.14 10.75 3.19 C11.63 3.22 12.51 3.26 13.42 3.29 C16.47 2.95 17.66 1.91 20 0 C22.75 -0.19 22.75 -0.19 25 0 C24.69 2.89 24.46 4.54 22.38 6.64 C17.47 9.45 11.46 8.69 6 8 C3.03 6.65 2.07 5.62 0 3 C0 2.01 0 1.02 0 0 Z " fill="#AB9673" transform="translate(80,169)"/>
<path d="M0 0 C5.75 0.75 5.75 0.75 8 3 C10.33 3.36 10.33 3.36 12.94 3.31 C13.81 3.33 14.69 3.35 15.59 3.36 C18.48 2.93 19.03 2.03 21 0 C22.32 0 23.64 0 25 0 C24.66 2.51 24.32 4.49 22.95 6.64 C19.9 8.77 16.7 8.47 13.12 8.44 C12.42 8.46 11.71 8.48 10.98 8.5 C7.34 8.49 5.14 8.08 1.99 6.22 C0 4 0 4 0 0 Z " fill="#A99571" transform="translate(617,132)"/>
<path d="M0 0 C0.25 2.31 0.25 2.31 0 5 C-2.5 7.72 -4.03 8 -7.75 8.4 C-9.17 8.41 -10.58 8.4 -12 8.38 C-13.07 8.39 -13.07 8.39 -14.16 8.41 C-17.31 8.39 -19.67 8.17 -22.5 6.73 C-24 5 -24 5 -24 1 C-18.25 1.88 -18.25 1.88 -16 3 C-9.26 3.44 -6.04 0 0 0 Z " fill="#AC9774" transform="translate(777,168)"/>
<path d="M0 0 C3.37 0.55 5.08 1.05 8 3 C11.2 3.24 11.2 3.24 14.69 3.12 C15.87 3.11 17.05 3.09 18.26 3.07 C19.17 3.05 20.07 3.02 21 3 C21 2.01 21 1.02 21 0 C22.32 0 23.64 0 25 0 C24.5 3.71 23.96 5.66 21 8 C19.05 8.39 19.05 8.39 16.88 8.4 C16.09 8.4 15.3 8.41 14.48 8.41 C13.66 8.4 12.84 8.39 12 8.38 C10.77 8.39 10.77 8.39 9.52 8.41 C8.33 8.4 8.33 8.4 7.12 8.4 C6.41 8.4 5.69 8.39 4.95 8.39 C2.44 7.89 1.54 7.01 0 5 C-0.19 2.31 -0.19 2.31 0 0 Z " fill="#AF9B79" transform="translate(47,151)"/>
<path d="M0 0 C1.65 0 3.3 0 5 0 C5 0.99 5 1.98 5 3 C6.94 3.08 8.87 3.14 10.81 3.19 C11.89 3.22 12.97 3.26 14.08 3.29 C17.37 2.96 17.93 2.42 20 0 C22.69 -0.19 22.69 -0.19 25 0 C24.66 2.52 24.33 4.5 22.92 6.64 C19.93 8.76 17.24 8.43 13.62 8.44 C12.32 8.46 11.01 8.48 9.66 8.5 C5.52 7.94 3.9 6.95 1 4 C0.19 1.75 0.19 1.75 0 0 Z " fill="#AF9B78" transform="translate(867,169)"/>
<path d="M0 0 C4.88 1.88 4.88 1.88 6 3 C8.26 3.24 8.26 3.24 10.88 3.25 C11.76 3.28 12.64 3.3 13.55 3.33 C16.46 2.94 17.09 2.12 19 0 C21.69 -0.19 21.69 -0.19 24 0 C24.31 2.31 24.31 2.31 24 5 C19.95 8.25 16.52 8.41 11.44 8.38 C10.14 8.38 8.84 8.39 7.5 8.4 C3.92 7.99 2.44 7.59 0 5 C-0.25 2.31 -0.25 2.31 0 0 Z " fill="#A9946F" transform="translate(874,151)"/>
<path d="M0 0 C2.25 0.25 2.25 0.25 4 1 C3.45 4.84 2.04 6.63 -1 9 C-4.53 9.5 -4.53 9.5 -8.5 9.44 C-9.81 9.44 -11.12 9.43 -12.47 9.43 C-16.05 8.99 -17.55 8.6 -20 6 C-20.25 3.31 -20.25 3.31 -20 1 C-17.53 1.5 -17.53 1.5 -15 2 C-15 2.99 -15 3.98 -15 5 C-7.73 5.04 -7.73 5.04 -1.56 1.88 C-1.05 1.26 -0.53 0.64 0 0 Z " fill="#AA9673" transform="translate(134,131)"/>
<path d="M0 0 C0.99 0 1.98 0 3 0 C3 0.99 3 1.98 3 3 C5.27 3.08 7.54 3.14 9.81 3.19 C11.71 3.24 11.71 3.24 13.64 3.29 C17.32 2.97 17.71 2.61 20 0 C21.32 0 22.64 0 24 0 C24.36 4.4 24.36 4.4 23.02 6.64 C19.79 8.82 16.32 8.43 12.56 8.38 C11.8 8.39 11.03 8.4 10.25 8.41 C6.8 8.39 4.56 8.3 1.48 6.64 C0 5 0 5 -0.25 2.31 C-0.17 1.55 -0.09 0.79 0 0 Z " fill="#A7936D" transform="translate(698,168)"/>
<path d="M0 0 C4.6 0.77 4.6 0.77 6.81 2.06 C10.33 3.57 13.18 3.3 17 3 C18.75 1.58 18.75 1.58 20 0 C21.32 0 22.64 0 24 0 C23.66 2.52 23.33 4.5 21.92 6.64 C18.93 8.76 16.24 8.43 12.62 8.44 C11.32 8.46 10.01 8.48 8.66 8.5 C4.51 7.93 2.81 7.09 0 4 C0 2.68 0 1.36 0 0 Z " fill="#A99570" transform="translate(75,151)"/>
<path d="M0 0 C0.94 0 1.88 0.01 2.84 0.01 C4.31 0.02 4.31 0.02 5.8 0.04 C7.28 0.04 7.28 0.04 8.79 0.05 C11.23 0.06 13.67 0.08 16.11 0.1 C16.11 1.75 16.11 3.4 16.11 5.1 C8.19 5.1 0.27 5.1 -7.89 5.1 C-7.89 3.78 -7.89 2.46 -7.89 1.1 C-4.95 0.12 -3.06 -0.02 0 0 Z " fill="#A8946F" transform="translate(407.88671875,141.90234375)"/>
<path d="M0 0 C5.75 1.88 5.75 1.88 8 3 C10.04 3.07 12.08 3.08 14.12 3.06 C15.22 3.05 16.32 3.04 17.45 3.04 C18.29 3.02 19.13 3.01 20 3 C20 2.01 20 1.02 20 0 C21.32 0 22.64 0 24 0 C23.66 2.51 23.32 4.5 21.95 6.64 C18.89 8.77 15.66 8.43 12.06 8.38 C11.35 8.39 10.63 8.4 9.89 8.41 C6.68 8.39 4.36 8.19 1.51 6.64 C0 5 0 5 -0.25 2.31 C-0.17 1.55 -0.08 0.79 0 0 Z " fill="#AC9774" transform="translate(87,132)"/>
<path d="M0 0 C7.26 0 14.52 0 22 0 C22 1.32 22 2.64 22 4 C14.74 4 7.48 4 0 4 C0 2.68 0 1.36 0 0 Z " fill="#AA9772" transform="translate(576,265)"/>
<path d="M0 0 C7.26 0 14.52 0 22 0 C22 1.32 22 2.64 22 4 C14.74 4 7.48 4 0 4 C0 2.68 0 1.36 0 0 Z " fill="#A8936D" transform="translate(577,203)"/>
</svg>
